<svg xmlns="http://www.w3.org/2000/svg" viewBox="0 0 76.83 130.97">
  <g id="Layer_2" data-name="Layer 2">
    <g id="Layer_1-2" data-name="Layer 1">
      <g>
        <path d="M1.55,124A1.55,1.55,0,1,1,0,125.52,1.55,1.55,0,0,1,1.55,124Z"/>
        <path d="M1.55,116.22A1.55,1.55,0,1,1,0,117.77,1.55,1.55,0,0,1,1.55,116.22Z"/>
        <path d="M1.55,108.47A1.55,1.55,0,1,1,0,110,1.55,1.55,0,0,1,1.55,108.47Z"/>
        <path d="M1.55,100.72A1.55,1.55,0,1,1,0,102.27,1.56,1.56,0,0,1,1.55,100.72Z"/>
        <path d="M1.55,93A1.55,1.55,0,1,1,0,94.52,1.56,1.56,0,0,1,1.55,93Z"/>
        <path d="M1.55,85.23A1.55,1.55,0,1,1,0,86.78,1.55,1.55,0,0,1,1.55,85.23Z"/>
        <path d="M1.55,77.48A1.55,1.55,0,1,1,0,79,1.55,1.55,0,0,1,1.55,77.48Z"/>
        <path d="M1.55,69.73A1.55,1.55,0,1,1,0,71.28,1.55,1.55,0,0,1,1.55,69.73Z"/>
        <path d="M1.55,62A1.55,1.55,0,1,1,0,63.53,1.56,1.56,0,0,1,1.55,62Z"/>
        <path d="M1.55,54.24A1.55,1.55,0,1,1,0,55.79,1.55,1.55,0,0,1,1.55,54.24Z"/>
        <path d="M1.55,46.49A1.55,1.55,0,1,1,0,48,1.55,1.55,0,0,1,1.55,46.49Z"/>
        <path d="M1.55,38.74A1.55,1.55,0,1,1,0,40.29,1.55,1.55,0,0,1,1.55,38.74Z"/>
        <path d="M1.55,31A1.55,1.55,0,1,1,0,32.54,1.56,1.56,0,0,1,1.55,31Z"/>
        <path d="M1.55,23.24A1.55,1.55,0,1,1,0,24.79,1.56,1.56,0,0,1,1.55,23.24Z"/>
        <path d="M1.55,15.5A1.55,1.55,0,1,1,0,17,1.55,1.55,0,0,1,1.55,15.5Z"/>
        <path d="M1.55,7.75A1.55,1.55,0,1,1,0,9.3,1.55,1.55,0,0,1,1.55,7.75Z"/>
        <path d="M1.55,0A1.55,1.55,0,1,1,0,1.55,1.55,1.55,0,0,1,1.55,0Z"/>
        <path d="M6.07,127.87a1.55,1.55,0,1,1-1.55,1.55A1.56,1.56,0,0,1,6.07,127.87Z"/>
        <path d="M6.07,120.12a1.55,1.55,0,1,1-1.55,1.55A1.56,1.56,0,0,1,6.07,120.12Z"/>
        <path d="M6.07,112.38a1.55,1.55,0,1,1-1.55,1.55A1.55,1.55,0,0,1,6.07,112.38Z"/>
        <path d="M6.07,104.63a1.55,1.55,0,1,1-1.55,1.55A1.55,1.55,0,0,1,6.07,104.63Z"/>
        <path d="M6.07,96.88a1.55,1.55,0,1,1-1.55,1.55A1.55,1.55,0,0,1,6.07,96.88Z"/>
        <path d="M6.07,89.13a1.55,1.55,0,1,1-1.55,1.55A1.56,1.56,0,0,1,6.07,89.13Z"/>
        <path d="M6.07,81.38a1.55,1.55,0,1,1-1.55,1.55A1.56,1.56,0,0,1,6.07,81.38Z"/>
        <path d="M6.07,73.64a1.55,1.55,0,1,1-1.55,1.55A1.55,1.55,0,0,1,6.07,73.64Z"/>
        <path d="M6.07,65.89a1.55,1.55,0,1,1-1.55,1.55A1.55,1.55,0,0,1,6.07,65.89Z"/>
        <path d="M6.07,58.14a1.55,1.55,0,1,1-1.55,1.55A1.55,1.55,0,0,1,6.07,58.14Z"/>
        <path d="M6.07,50.39a1.55,1.55,0,1,1-1.55,1.55A1.56,1.56,0,0,1,6.07,50.39Z"/>
        <path d="M6.07,42.65A1.55,1.55,0,1,1,4.52,44.2,1.55,1.55,0,0,1,6.07,42.65Z"/>
        <path d="M6.07,34.9a1.55,1.55,0,1,1-1.55,1.55A1.55,1.55,0,0,1,6.07,34.9Z"/>
        <path d="M6.07,27.15A1.55,1.55,0,1,1,4.52,28.7,1.55,1.55,0,0,1,6.07,27.15Z"/>
        <path d="M6.07,19.4A1.55,1.55,0,1,1,4.52,21,1.56,1.56,0,0,1,6.07,19.4Z"/>
        <path d="M6.07,11.65A1.55,1.55,0,1,1,4.52,13.2,1.56,1.56,0,0,1,6.07,11.65Z"/>
        <path d="M6.07,3.91A1.55,1.55,0,1,1,4.52,5.45,1.55,1.55,0,0,1,6.07,3.91Z"/>
        <path d="M10.2,124a1.55,1.55,0,1,1-1.55,1.55A1.54,1.54,0,0,1,10.2,124Z"/>
        <path d="M10.2,116.22a1.55,1.55,0,1,1-1.55,1.55A1.54,1.54,0,0,1,10.2,116.22Z"/>
        <path d="M10.2,108.47A1.55,1.55,0,1,1,8.65,110,1.54,1.54,0,0,1,10.2,108.47Z"/>
        <path d="M10.2,100.72a1.55,1.55,0,1,1-1.55,1.55A1.55,1.55,0,0,1,10.2,100.72Z"/>
        <path d="M10.2,93a1.55,1.55,0,1,1-1.55,1.55A1.55,1.55,0,0,1,10.2,93Z"/>
        <path d="M10.2,85.23a1.55,1.55,0,1,1-1.55,1.55A1.54,1.54,0,0,1,10.2,85.23Z"/>
        <path d="M10.2,77.48A1.55,1.55,0,1,1,8.65,79,1.54,1.54,0,0,1,10.2,77.48Z"/>
        <path d="M10.2,69.73a1.55,1.55,0,1,1-1.55,1.55A1.54,1.54,0,0,1,10.2,69.73Z"/>
        <path d="M10.2,62a1.55,1.55,0,1,1-1.55,1.55A1.55,1.55,0,0,1,10.2,62Z"/>
        <path d="M10.2,54.24a1.55,1.55,0,1,1-1.55,1.55A1.54,1.54,0,0,1,10.2,54.24Z"/>
        <path d="M10.2,46.49A1.55,1.55,0,1,1,8.65,48,1.54,1.54,0,0,1,10.2,46.49Z"/>
        <path d="M10.2,38.74a1.55,1.55,0,1,1-1.55,1.55A1.54,1.54,0,0,1,10.2,38.74Z"/>
        <path d="M10.2,31a1.55,1.55,0,1,1-1.55,1.55A1.55,1.55,0,0,1,10.2,31Z"/>
        <path d="M10.2,23.24a1.55,1.55,0,1,1-1.55,1.55A1.55,1.55,0,0,1,10.2,23.24Z"/>
        <path d="M10.2,15.5A1.55,1.55,0,1,1,8.65,17,1.54,1.54,0,0,1,10.2,15.5Z"/>
        <path d="M10.2,7.75A1.55,1.55,0,1,1,8.65,9.3,1.54,1.54,0,0,1,10.2,7.75Z"/>
        <path d="M10.2,0A1.55,1.55,0,1,1,8.65,1.55,1.54,1.54,0,0,1,10.2,0Z"/>
        <path d="M14.72,127.87a1.55,1.55,0,1,1-1.55,1.55A1.55,1.55,0,0,1,14.72,127.87Z"/>
        <path d="M14.72,120.12a1.55,1.55,0,1,1-1.55,1.55A1.55,1.55,0,0,1,14.72,120.12Z"/>
        <path d="M14.72,112.38a1.55,1.55,0,1,1-1.55,1.55A1.54,1.54,0,0,1,14.72,112.38Z"/>
        <path d="M14.72,104.63a1.55,1.55,0,1,1-1.55,1.55A1.54,1.54,0,0,1,14.72,104.63Z"/>
        <path d="M14.72,96.88a1.55,1.55,0,1,1-1.55,1.55A1.54,1.54,0,0,1,14.72,96.88Z"/>
        <path d="M14.72,89.13a1.55,1.55,0,1,1-1.55,1.55A1.55,1.55,0,0,1,14.72,89.13Z"/>
        <path d="M14.72,81.38a1.55,1.55,0,1,1-1.55,1.55A1.55,1.55,0,0,1,14.72,81.38Z"/>
        <path d="M14.72,73.64a1.55,1.55,0,1,1-1.55,1.55A1.54,1.54,0,0,1,14.72,73.64Z"/>
        <path d="M14.72,65.89a1.55,1.55,0,1,1-1.55,1.55A1.54,1.54,0,0,1,14.72,65.89Z"/>
        <path d="M14.72,58.14a1.55,1.55,0,1,1-1.55,1.55A1.54,1.54,0,0,1,14.72,58.14Z"/>
        <path d="M14.72,50.39a1.55,1.55,0,1,1-1.55,1.55A1.55,1.55,0,0,1,14.72,50.39Z"/>
        <path d="M14.72,42.65a1.55,1.55,0,1,1-1.55,1.55A1.54,1.54,0,0,1,14.72,42.65Z"/>
        <path d="M14.72,34.9a1.55,1.55,0,1,1-1.55,1.55A1.54,1.54,0,0,1,14.72,34.9Z"/>
        <path d="M14.72,27.15a1.55,1.55,0,1,1-1.55,1.55A1.54,1.54,0,0,1,14.72,27.15Z"/>
        <path d="M14.72,19.4A1.55,1.55,0,1,1,13.17,21,1.55,1.55,0,0,1,14.72,19.4Z"/>
        <path d="M14.72,11.65a1.55,1.55,0,1,1-1.55,1.55A1.55,1.55,0,0,1,14.72,11.65Z"/>
        <path d="M14.72,3.91a1.55,1.55,0,1,1-1.55,1.54A1.54,1.54,0,0,1,14.72,3.91Z"/>
        <path d="M18.85,124a1.55,1.55,0,1,1-1.55,1.55A1.54,1.54,0,0,1,18.85,124Z"/>
        <path d="M18.85,116.22a1.55,1.55,0,1,1-1.55,1.55A1.54,1.54,0,0,1,18.85,116.22Z"/>
        <circle cx="18.85" cy="110.02" r="1.55"/>
        <circle cx="18.85" cy="102.27" r="1.55"/>
        <circle cx="18.85" cy="94.52" r="1.55"/>
        <circle cx="18.85" cy="86.78" r="1.55"/>
        <circle cx="18.85" cy="79.03" r="1.55"/>
        <path d="M18.85,69.73a1.55,1.55,0,1,1-1.55,1.55A1.54,1.54,0,0,1,18.85,69.73Z"/>
        <path d="M18.85,62a1.55,1.55,0,1,1-1.55,1.55A1.55,1.55,0,0,1,18.85,62Z"/>
        <path d="M18.85,54.24a1.55,1.55,0,1,1-1.55,1.55A1.54,1.54,0,0,1,18.85,54.24Z"/>
        <path d="M18.85,46.49A1.55,1.55,0,1,1,17.3,48,1.54,1.54,0,0,1,18.85,46.49Z"/>
        <circle cx="18.85" cy="40.29" r="1.55"/>
        <path d="M18.85,31a1.55,1.55,0,1,1-1.55,1.55A1.55,1.55,0,0,1,18.85,31Z"/>
        <path d="M18.85,23.24a1.55,1.55,0,1,1-1.55,1.55A1.55,1.55,0,0,1,18.85,23.24Z"/>
        <path d="M18.85,15.5A1.55,1.55,0,1,1,17.3,17,1.54,1.54,0,0,1,18.85,15.5Z"/>
        <path d="M18.85,7.75A1.55,1.55,0,1,1,17.3,9.3,1.54,1.54,0,0,1,18.85,7.75Z"/>
        <circle cx="18.85" cy="1.55" r="1.55"/>
        <path d="M23.37,127.87a1.55,1.55,0,1,1-1.55,1.55A1.55,1.55,0,0,1,23.37,127.87Z"/>
        <path d="M23.37,120.12a1.55,1.55,0,1,1-1.55,1.55A1.55,1.55,0,0,1,23.37,120.12Z"/>
        <path d="M23.37,112.38a1.55,1.55,0,1,1-1.55,1.55A1.54,1.54,0,0,1,23.37,112.38Z"/>
        <path d="M23.37,104.63a1.55,1.55,0,1,1-1.55,1.55A1.54,1.54,0,0,1,23.37,104.63Z"/>
        <path d="M23.37,96.88a1.55,1.55,0,1,1-1.55,1.55A1.54,1.54,0,0,1,23.37,96.88Z"/>
        <path d="M23.37,89.13a1.55,1.55,0,1,1-1.55,1.55A1.55,1.55,0,0,1,23.37,89.13Z"/>
        <path d="M23.37,81.38a1.55,1.55,0,1,1-1.55,1.55A1.55,1.55,0,0,1,23.37,81.38Z"/>
        <path d="M23.37,73.64a1.55,1.55,0,1,1-1.55,1.55A1.54,1.54,0,0,1,23.37,73.64Z"/>
        <path d="M23.37,65.89a1.55,1.55,0,1,1-1.55,1.55A1.54,1.54,0,0,1,23.37,65.89Z"/>
        <path d="M23.37,58.14a1.55,1.55,0,1,1-1.55,1.55A1.54,1.54,0,0,1,23.37,58.14Z"/>
        <path d="M23.37,50.39a1.55,1.55,0,1,1-1.55,1.55A1.55,1.55,0,0,1,23.37,50.39Z"/>
        <path d="M23.37,42.65a1.55,1.55,0,1,1-1.55,1.55A1.54,1.54,0,0,1,23.37,42.65Z"/>
        <path d="M23.37,34.9a1.55,1.55,0,1,1-1.55,1.55A1.54,1.54,0,0,1,23.37,34.9Z"/>
        <path d="M23.37,27.15a1.55,1.55,0,1,1-1.55,1.55A1.54,1.54,0,0,1,23.37,27.15Z"/>
        <path d="M23.37,19.4A1.55,1.55,0,1,1,21.82,21,1.55,1.55,0,0,1,23.37,19.4Z"/>
        <path d="M23.37,11.65a1.55,1.55,0,1,1-1.55,1.55A1.55,1.55,0,0,1,23.37,11.65Z"/>
        <path d="M23.37,3.91a1.55,1.55,0,1,1-1.55,1.54A1.54,1.54,0,0,1,23.37,3.91Z"/>
        <path d="M27.5,124A1.55,1.55,0,1,1,26,125.52,1.54,1.54,0,0,1,27.5,124Z"/>
        <path d="M27.5,116.22A1.55,1.55,0,1,1,26,117.77,1.54,1.54,0,0,1,27.5,116.22Z"/>
        <path d="M27.5,108.47A1.55,1.55,0,1,1,26,110,1.54,1.54,0,0,1,27.5,108.47Z"/>
        <path d="M27.5,100.72A1.55,1.55,0,1,1,26,102.27,1.55,1.55,0,0,1,27.5,100.72Z"/>
        <path d="M27.5,93A1.55,1.55,0,1,1,26,94.52,1.55,1.55,0,0,1,27.5,93Z"/>
        <path d="M27.5,85.23A1.55,1.55,0,1,1,26,86.78,1.54,1.54,0,0,1,27.5,85.23Z"/>
        <path d="M27.5,77.48A1.55,1.55,0,1,1,26,79,1.54,1.54,0,0,1,27.5,77.48Z"/>
        <path d="M27.5,69.73A1.55,1.55,0,1,1,26,71.28,1.54,1.54,0,0,1,27.5,69.73Z"/>
        <path d="M27.5,62A1.55,1.55,0,1,1,26,63.53,1.55,1.55,0,0,1,27.5,62Z"/>
        <path d="M27.5,54.24A1.55,1.55,0,1,1,26,55.79,1.54,1.54,0,0,1,27.5,54.24Z"/>
        <path d="M27.5,46.49A1.55,1.55,0,1,1,26,48,1.54,1.54,0,0,1,27.5,46.49Z"/>
        <path d="M27.5,38.74A1.55,1.55,0,1,1,26,40.29,1.54,1.54,0,0,1,27.5,38.74Z"/>
        <path d="M27.5,31A1.55,1.55,0,1,1,26,32.54,1.55,1.55,0,0,1,27.5,31Z"/>
        <path d="M27.5,23.24A1.55,1.55,0,1,1,26,24.79,1.55,1.55,0,0,1,27.5,23.24Z"/>
        <path d="M27.5,15.5A1.55,1.55,0,1,1,26,17,1.54,1.54,0,0,1,27.5,15.5Z"/>
        <path d="M27.5,7.75A1.55,1.55,0,1,1,26,9.3,1.54,1.54,0,0,1,27.5,7.75Z"/>
        <path d="M27.5,0A1.55,1.55,0,1,1,26,1.55,1.54,1.54,0,0,1,27.5,0Z"/>
        <path d="M32,127.87a1.55,1.55,0,1,1-1.55,1.55A1.55,1.55,0,0,1,32,127.87Z"/>
        <path d="M32,120.12a1.55,1.55,0,1,1-1.55,1.55A1.55,1.55,0,0,1,32,120.12Z"/>
        <path d="M32,112.38a1.55,1.55,0,1,1-1.55,1.55A1.54,1.54,0,0,1,32,112.38Z"/>
        <path d="M32,104.63a1.55,1.55,0,1,1-1.55,1.55A1.54,1.54,0,0,1,32,104.63Z"/>
        <path d="M32,96.88a1.55,1.55,0,1,1-1.55,1.55A1.54,1.54,0,0,1,32,96.88Z"/>
        <path d="M32,89.13a1.55,1.55,0,1,1-1.55,1.55A1.55,1.55,0,0,1,32,89.13Z"/>
        <path d="M32,81.38a1.55,1.55,0,1,1-1.55,1.55A1.55,1.55,0,0,1,32,81.38Z"/>
        <path d="M32,73.64a1.55,1.55,0,1,1-1.55,1.55A1.54,1.54,0,0,1,32,73.64Z"/>
        <path d="M32,65.89a1.55,1.55,0,1,1-1.55,1.55A1.54,1.54,0,0,1,32,65.89Z"/>
        <path d="M32,58.14a1.55,1.55,0,1,1-1.55,1.55A1.54,1.54,0,0,1,32,58.14Z"/>
        <path d="M32,50.39a1.55,1.55,0,1,1-1.55,1.55A1.55,1.55,0,0,1,32,50.39Z"/>
        <path d="M32,42.65a1.55,1.55,0,1,1-1.55,1.55A1.54,1.54,0,0,1,32,42.65Z"/>
        <path d="M32,34.9a1.55,1.55,0,1,1-1.55,1.55A1.54,1.54,0,0,1,32,34.9Z"/>
        <path d="M32,27.15a1.55,1.55,0,1,1-1.55,1.55A1.54,1.54,0,0,1,32,27.15Z"/>
        <path d="M32,19.4A1.55,1.55,0,1,1,30.47,21,1.55,1.55,0,0,1,32,19.4Z"/>
        <path d="M32,11.65a1.55,1.55,0,1,1-1.55,1.55A1.55,1.55,0,0,1,32,11.65Z"/>
        <path d="M32,3.91a1.55,1.55,0,1,1-1.55,1.54A1.54,1.54,0,0,1,32,3.91Z"/>
        <path d="M36.16,124a1.55,1.55,0,1,1-1.55,1.55A1.54,1.54,0,0,1,36.16,124Z"/>
        <path d="M36.16,116.22a1.55,1.55,0,1,1-1.55,1.55A1.54,1.54,0,0,1,36.16,116.22Z"/>
        <path d="M36.16,108.47A1.55,1.55,0,1,1,34.61,110,1.54,1.54,0,0,1,36.16,108.47Z"/>
        <path d="M36.16,100.72a1.55,1.55,0,1,1-1.55,1.55A1.55,1.55,0,0,1,36.16,100.72Z"/>
        <path d="M36.16,93a1.55,1.55,0,1,1-1.55,1.55A1.55,1.55,0,0,1,36.16,93Z"/>
        <path d="M36.16,85.23a1.55,1.55,0,1,1-1.55,1.55A1.54,1.54,0,0,1,36.16,85.23Z"/>
        <path d="M36.16,77.48A1.55,1.55,0,1,1,34.61,79,1.54,1.54,0,0,1,36.16,77.48Z"/>
        <path d="M36.16,69.73a1.55,1.55,0,1,1-1.55,1.55A1.54,1.54,0,0,1,36.16,69.73Z"/>
        <path d="M36.16,62a1.55,1.55,0,1,1-1.55,1.55A1.55,1.55,0,0,1,36.16,62Z"/>
        <path d="M36.16,54.24a1.55,1.55,0,1,1-1.55,1.55A1.54,1.54,0,0,1,36.16,54.24Z"/>
        <path d="M36.16,46.49A1.55,1.55,0,1,1,34.61,48,1.54,1.54,0,0,1,36.16,46.49Z"/>
        <path d="M36.16,38.74a1.55,1.55,0,1,1-1.55,1.55A1.54,1.54,0,0,1,36.16,38.74Z"/>
        <path d="M36.16,31a1.55,1.55,0,1,1-1.55,1.55A1.55,1.55,0,0,1,36.16,31Z"/>
        <path d="M36.16,23.24a1.55,1.55,0,1,1-1.55,1.55A1.55,1.55,0,0,1,36.16,23.24Z"/>
        <path d="M36.16,15.5A1.55,1.55,0,1,1,34.61,17,1.54,1.54,0,0,1,36.16,15.5Z"/>
        <path d="M36.16,7.75A1.55,1.55,0,1,1,34.61,9.3,1.54,1.54,0,0,1,36.16,7.75Z"/>
        <path d="M36.16,0a1.55,1.55,0,1,1-1.55,1.55A1.54,1.54,0,0,1,36.16,0Z"/>
        <path d="M40.67,127.87a1.55,1.55,0,1,1-1.55,1.55A1.55,1.55,0,0,1,40.67,127.87Z"/>
        <path d="M40.67,120.12a1.55,1.55,0,1,1-1.55,1.55A1.55,1.55,0,0,1,40.67,120.12Z"/>
        <path d="M40.67,112.38a1.55,1.55,0,1,1-1.55,1.55A1.54,1.54,0,0,1,40.67,112.38Z"/>
        <path d="M40.67,104.63a1.55,1.55,0,1,1-1.55,1.55A1.54,1.54,0,0,1,40.67,104.63Z"/>
        <path d="M40.67,96.88a1.55,1.55,0,1,1-1.55,1.55A1.54,1.54,0,0,1,40.67,96.88Z"/>
        <path d="M40.67,89.13a1.55,1.55,0,1,1-1.55,1.55A1.55,1.55,0,0,1,40.67,89.13Z"/>
        <path d="M40.67,81.38a1.55,1.55,0,1,1-1.55,1.55A1.55,1.55,0,0,1,40.67,81.38Z"/>
        <path d="M40.67,73.64a1.55,1.55,0,1,1-1.55,1.55A1.54,1.54,0,0,1,40.67,73.64Z"/>
        <path d="M40.67,65.89a1.55,1.55,0,1,1-1.55,1.55A1.54,1.54,0,0,1,40.67,65.89Z"/>
        <path d="M40.67,58.14a1.55,1.55,0,1,1-1.55,1.55A1.54,1.54,0,0,1,40.67,58.14Z"/>
        <path d="M40.67,50.39a1.55,1.55,0,1,1-1.55,1.55A1.55,1.55,0,0,1,40.67,50.39Z"/>
        <path d="M40.67,42.65a1.55,1.55,0,1,1-1.55,1.55A1.54,1.54,0,0,1,40.67,42.65Z"/>
        <path d="M40.67,34.9a1.55,1.55,0,1,1-1.55,1.55A1.54,1.54,0,0,1,40.67,34.9Z"/>
        <path d="M40.67,27.15a1.55,1.55,0,1,1-1.55,1.55A1.54,1.54,0,0,1,40.67,27.15Z"/>
        <path d="M40.67,19.4A1.55,1.55,0,1,1,39.12,21,1.55,1.55,0,0,1,40.67,19.4Z"/>
        <path d="M40.67,11.65a1.55,1.55,0,1,1-1.55,1.55A1.55,1.55,0,0,1,40.67,11.65Z"/>
        <path d="M40.67,3.91a1.55,1.55,0,1,1-1.55,1.54A1.54,1.54,0,0,1,40.67,3.91Z"/>
        <path d="M44.81,124a1.55,1.55,0,1,1-1.55,1.55A1.55,1.55,0,0,1,44.81,124Z"/>
        <path d="M44.81,116.22a1.55,1.55,0,1,1-1.55,1.55A1.55,1.55,0,0,1,44.81,116.22Z"/>
        <path d="M44.81,108.47A1.55,1.55,0,1,1,43.26,110,1.55,1.55,0,0,1,44.81,108.47Z"/>
        <path d="M44.81,100.72a1.55,1.55,0,1,1-1.55,1.55A1.56,1.56,0,0,1,44.81,100.72Z"/>
        <path d="M44.81,93a1.55,1.55,0,1,1-1.55,1.55A1.56,1.56,0,0,1,44.81,93Z"/>
        <path d="M44.81,85.23a1.55,1.55,0,1,1-1.55,1.55A1.55,1.55,0,0,1,44.81,85.23Z"/>
        <path d="M44.81,77.48A1.55,1.55,0,1,1,43.26,79,1.55,1.55,0,0,1,44.81,77.48Z"/>
        <path d="M44.81,69.73a1.55,1.55,0,1,1-1.55,1.55A1.55,1.55,0,0,1,44.81,69.73Z"/>
        <path d="M44.81,62a1.55,1.55,0,1,1-1.55,1.55A1.56,1.56,0,0,1,44.81,62Z"/>
        <path d="M44.81,54.24a1.55,1.55,0,1,1-1.55,1.55A1.55,1.55,0,0,1,44.81,54.24Z"/>
        <path d="M44.81,46.49A1.55,1.55,0,1,1,43.26,48,1.55,1.55,0,0,1,44.81,46.49Z"/>
        <path d="M44.81,38.74a1.55,1.55,0,1,1-1.55,1.55A1.55,1.55,0,0,1,44.81,38.74Z"/>
        <path d="M44.81,31a1.55,1.55,0,1,1-1.55,1.55A1.56,1.56,0,0,1,44.81,31Z"/>
        <path d="M44.81,23.24a1.55,1.55,0,1,1-1.55,1.55A1.56,1.56,0,0,1,44.81,23.24Z"/>
        <path d="M44.81,15.5A1.55,1.55,0,1,1,43.26,17,1.55,1.55,0,0,1,44.81,15.5Z"/>
        <path d="M44.81,7.75A1.55,1.55,0,1,1,43.26,9.3,1.55,1.55,0,0,1,44.81,7.75Z"/>
        <path d="M44.81,0a1.55,1.55,0,1,1-1.55,1.55A1.55,1.55,0,0,1,44.81,0Z"/>
        <path d="M49.32,127.87a1.55,1.55,0,1,1,0,3.1,1.55,1.55,0,0,1,0-3.1Z"/>
        <path d="M49.32,120.12a1.55,1.55,0,1,1,0,3.1,1.55,1.55,0,0,1,0-3.1Z"/>
        <path d="M49.32,112.38a1.55,1.55,0,1,1-1.54,1.55A1.55,1.55,0,0,1,49.32,112.38Z"/>
        <path d="M49.32,104.63a1.55,1.55,0,1,1-1.54,1.55A1.55,1.55,0,0,1,49.32,104.63Z"/>
        <path d="M49.32,96.88a1.55,1.55,0,1,1-1.54,1.55A1.55,1.55,0,0,1,49.32,96.88Z"/>
        <path d="M49.32,89.13a1.55,1.55,0,1,1,0,3.1,1.55,1.55,0,0,1,0-3.1Z"/>
        <path d="M49.32,81.38a1.55,1.55,0,1,1,0,3.1,1.55,1.55,0,0,1,0-3.1Z"/>
        <path d="M49.32,73.64a1.55,1.55,0,1,1-1.54,1.55A1.55,1.55,0,0,1,49.32,73.64Z"/>
        <path d="M49.32,65.89a1.55,1.55,0,1,1-1.54,1.55A1.55,1.55,0,0,1,49.32,65.89Z"/>
        <path d="M49.32,58.14a1.55,1.55,0,1,1-1.54,1.55A1.55,1.55,0,0,1,49.32,58.14Z"/>
        <path d="M49.32,50.39a1.55,1.55,0,1,1,0,3.1,1.55,1.55,0,0,1,0-3.1Z"/>
        <path d="M49.32,42.65a1.55,1.55,0,1,1-1.54,1.55A1.55,1.55,0,0,1,49.32,42.65Z"/>
        <path d="M49.32,34.9a1.55,1.55,0,1,1-1.54,1.55A1.55,1.55,0,0,1,49.32,34.9Z"/>
        <path d="M49.32,27.15a1.55,1.55,0,1,1-1.54,1.55A1.55,1.55,0,0,1,49.32,27.15Z"/>
        <path d="M49.32,19.4a1.55,1.55,0,1,1,0,3.1,1.55,1.55,0,0,1,0-3.1Z"/>
        <path d="M49.32,11.65a1.55,1.55,0,1,1,0,3.1,1.55,1.55,0,0,1,0-3.1Z"/>
        <path d="M49.32,3.91a1.55,1.55,0,1,1-1.54,1.54A1.55,1.55,0,0,1,49.32,3.91Z"/>
        <path d="M53.46,124a1.55,1.55,0,1,1-1.55,1.55A1.55,1.55,0,0,1,53.46,124Z"/>
        <path d="M53.46,116.22a1.55,1.55,0,1,1-1.55,1.55A1.55,1.55,0,0,1,53.46,116.22Z"/>
        <path d="M53.46,108.47A1.55,1.55,0,1,1,51.91,110,1.55,1.55,0,0,1,53.46,108.47Z"/>
        <path d="M53.46,100.72a1.55,1.55,0,1,1-1.55,1.55A1.56,1.56,0,0,1,53.46,100.72Z"/>
        <path d="M53.46,93a1.55,1.55,0,1,1-1.55,1.55A1.56,1.56,0,0,1,53.46,93Z"/>
        <path d="M53.46,85.23a1.55,1.55,0,1,1-1.55,1.55A1.55,1.55,0,0,1,53.46,85.23Z"/>
        <path d="M53.46,77.48A1.55,1.55,0,1,1,51.91,79,1.55,1.55,0,0,1,53.46,77.48Z"/>
        <path d="M53.46,69.73a1.55,1.55,0,1,1-1.55,1.55A1.55,1.55,0,0,1,53.46,69.73Z"/>
        <path d="M53.46,62a1.55,1.55,0,1,1-1.55,1.55A1.56,1.56,0,0,1,53.46,62Z"/>
        <path d="M53.46,54.24a1.55,1.55,0,1,1-1.55,1.55A1.55,1.55,0,0,1,53.46,54.24Z"/>
        <path d="M53.46,46.49A1.55,1.55,0,1,1,51.91,48,1.55,1.55,0,0,1,53.46,46.49Z"/>
        <path d="M53.46,38.74a1.55,1.55,0,1,1-1.55,1.55A1.55,1.55,0,0,1,53.46,38.74Z"/>
        <path d="M53.46,31a1.55,1.55,0,1,1-1.55,1.55A1.56,1.56,0,0,1,53.46,31Z"/>
        <path d="M53.46,23.24a1.55,1.55,0,1,1-1.55,1.55A1.56,1.56,0,0,1,53.46,23.24Z"/>
        <path d="M53.46,15.5A1.55,1.55,0,1,1,51.91,17,1.55,1.55,0,0,1,53.46,15.5Z"/>
        <path d="M53.46,7.75A1.55,1.55,0,1,1,51.91,9.3,1.55,1.55,0,0,1,53.46,7.75Z"/>
        <path d="M53.46,0a1.55,1.55,0,1,1-1.55,1.55A1.55,1.55,0,0,1,53.46,0Z"/>
        <path d="M58,127.87a1.55,1.55,0,1,1-1.55,1.55A1.56,1.56,0,0,1,58,127.87Z"/>
        <path d="M58,120.12a1.55,1.55,0,1,1-1.55,1.55A1.56,1.56,0,0,1,58,120.12Z"/>
        <path d="M58,112.38a1.55,1.55,0,1,1-1.55,1.55A1.55,1.55,0,0,1,58,112.38Z"/>
        <path d="M58,104.63a1.55,1.55,0,1,1-1.55,1.55A1.55,1.55,0,0,1,58,104.63Z"/>
        <path d="M58,96.88a1.55,1.55,0,1,1-1.55,1.55A1.55,1.55,0,0,1,58,96.88Z"/>
        <path d="M58,89.13a1.55,1.55,0,1,1-1.55,1.55A1.56,1.56,0,0,1,58,89.13Z"/>
        <path d="M58,81.38a1.55,1.55,0,1,1-1.55,1.55A1.56,1.56,0,0,1,58,81.38Z"/>
        <path d="M58,73.64a1.55,1.55,0,1,1-1.55,1.55A1.55,1.55,0,0,1,58,73.64Z"/>
        <path d="M58,65.89a1.55,1.55,0,1,1-1.55,1.55A1.55,1.55,0,0,1,58,65.89Z"/>
        <path d="M58,58.14a1.55,1.55,0,1,1-1.55,1.55A1.55,1.55,0,0,1,58,58.14Z"/>
        <path d="M58,50.39a1.55,1.55,0,1,1-1.55,1.55A1.56,1.56,0,0,1,58,50.39Z"/>
        <path d="M58,42.65a1.55,1.55,0,1,1-1.55,1.55A1.55,1.55,0,0,1,58,42.65Z"/>
        <path d="M58,34.9a1.55,1.55,0,1,1-1.55,1.55A1.55,1.55,0,0,1,58,34.9Z"/>
        <path d="M58,27.15a1.55,1.55,0,1,1-1.55,1.55A1.55,1.55,0,0,1,58,27.15Z"/>
        <path d="M58,19.4A1.55,1.55,0,1,1,56.43,21,1.56,1.56,0,0,1,58,19.4Z"/>
        <path d="M58,11.65a1.55,1.55,0,1,1-1.55,1.55A1.56,1.56,0,0,1,58,11.65Z"/>
        <path d="M58,3.91a1.55,1.55,0,1,1-1.55,1.54A1.55,1.55,0,0,1,58,3.91Z"/>
        <path d="M62.11,124a1.55,1.55,0,1,1-1.55,1.55A1.55,1.55,0,0,1,62.11,124Z"/>
        <path d="M62.11,116.22a1.55,1.55,0,1,1-1.55,1.55A1.55,1.55,0,0,1,62.11,116.22Z"/>
        <path d="M62.11,108.47A1.55,1.55,0,1,1,60.56,110,1.55,1.55,0,0,1,62.11,108.47Z"/>
        <path d="M62.11,100.72a1.55,1.55,0,1,1-1.55,1.55A1.56,1.56,0,0,1,62.11,100.72Z"/>
        <path d="M62.11,93a1.55,1.55,0,1,1-1.55,1.55A1.56,1.56,0,0,1,62.11,93Z"/>
        <path d="M62.11,85.23a1.55,1.55,0,1,1-1.55,1.55A1.55,1.55,0,0,1,62.11,85.23Z"/>
        <path d="M62.11,77.48A1.55,1.55,0,1,1,60.56,79,1.55,1.55,0,0,1,62.11,77.48Z"/>
        <path d="M62.11,69.73a1.55,1.55,0,1,1-1.55,1.55A1.55,1.55,0,0,1,62.11,69.73Z"/>
        <path d="M62.11,62a1.55,1.55,0,1,1-1.55,1.55A1.56,1.56,0,0,1,62.11,62Z"/>
        <path d="M62.11,54.24a1.55,1.55,0,1,1-1.55,1.55A1.55,1.55,0,0,1,62.11,54.24Z"/>
        <path d="M62.11,46.49A1.55,1.55,0,1,1,60.56,48,1.55,1.55,0,0,1,62.11,46.49Z"/>
        <path d="M62.11,38.74a1.55,1.55,0,1,1-1.55,1.55A1.55,1.55,0,0,1,62.11,38.74Z"/>
        <path d="M62.11,31a1.55,1.55,0,1,1-1.55,1.55A1.56,1.56,0,0,1,62.11,31Z"/>
        <path d="M62.11,23.24a1.55,1.55,0,1,1-1.55,1.55A1.56,1.56,0,0,1,62.11,23.24Z"/>
        <path d="M62.11,15.5A1.55,1.55,0,1,1,60.56,17,1.55,1.55,0,0,1,62.11,15.5Z"/>
        <path d="M62.11,7.75A1.55,1.55,0,1,1,60.56,9.3,1.55,1.55,0,0,1,62.11,7.75Z"/>
        <path d="M62.11,0a1.55,1.55,0,1,1-1.55,1.55A1.55,1.55,0,0,1,62.11,0Z"/>
        <circle cx="66.63" cy="129.42" r="1.55"/>
        <circle cx="66.63" cy="121.67" r="1.55"/>
        <path d="M66.63,112.38a1.55,1.55,0,1,1-1.55,1.55A1.55,1.55,0,0,1,66.63,112.38Z"/>
        <path d="M66.63,104.63a1.55,1.55,0,1,1-1.55,1.55A1.55,1.55,0,0,1,66.63,104.63Z"/>
        <path d="M66.63,96.88a1.55,1.55,0,1,1-1.55,1.55A1.55,1.55,0,0,1,66.63,96.88Z"/>
        <path d="M66.63,89.13a1.55,1.55,0,1,1-1.55,1.55A1.56,1.56,0,0,1,66.63,89.13Z"/>
        <circle cx="66.63" cy="82.93" r="1.55"/>
        <circle cx="66.63" cy="75.19" r="1.55"/>
        <circle cx="66.63" cy="67.44" r="1.55"/>
        <circle cx="66.63" cy="59.69" r="1.55"/>
        <path d="M66.63,50.39a1.55,1.55,0,1,1-1.55,1.55A1.56,1.56,0,0,1,66.63,50.39Z"/>
        <path d="M66.63,42.65a1.55,1.55,0,1,1-1.55,1.55A1.55,1.55,0,0,1,66.63,42.65Z"/>
        <path d="M66.63,34.9a1.55,1.55,0,1,1-1.55,1.55A1.55,1.55,0,0,1,66.63,34.9Z"/>
        <path d="M66.63,27.15a1.55,1.55,0,1,1-1.55,1.55A1.55,1.55,0,0,1,66.63,27.15Z"/>
        <circle cx="66.63" cy="20.95" r="1.55"/>
        <circle cx="66.63" cy="13.2" r="1.55"/>
        <path d="M66.63,3.91a1.55,1.55,0,1,1-1.55,1.54A1.55,1.55,0,0,1,66.63,3.91Z"/>
        <path d="M70.76,124a1.55,1.55,0,1,1-1.55,1.55A1.54,1.54,0,0,1,70.76,124Z"/>
        <path d="M70.76,116.22a1.55,1.55,0,1,1-1.55,1.55A1.54,1.54,0,0,1,70.76,116.22Z"/>
        <path d="M70.76,108.47A1.55,1.55,0,1,1,69.21,110,1.54,1.54,0,0,1,70.76,108.47Z"/>
        <path d="M70.76,100.72a1.55,1.55,0,1,1-1.55,1.55A1.55,1.55,0,0,1,70.76,100.72Z"/>
        <path d="M70.76,93a1.55,1.55,0,1,1-1.55,1.55A1.55,1.55,0,0,1,70.76,93Z"/>
        <path d="M70.76,85.23a1.55,1.55,0,1,1-1.55,1.55A1.54,1.54,0,0,1,70.76,85.23Z"/>
        <path d="M70.76,77.48A1.55,1.55,0,1,1,69.21,79,1.54,1.54,0,0,1,70.76,77.48Z"/>
        <path d="M70.76,69.73a1.55,1.55,0,1,1-1.55,1.55A1.54,1.54,0,0,1,70.76,69.73Z"/>
        <path d="M70.76,62a1.55,1.55,0,1,1-1.55,1.55A1.55,1.55,0,0,1,70.76,62Z"/>
        <path d="M70.76,54.24a1.55,1.55,0,1,1-1.55,1.55A1.54,1.54,0,0,1,70.76,54.24Z"/>
        <path d="M70.76,46.49A1.55,1.55,0,1,1,69.21,48,1.54,1.54,0,0,1,70.76,46.49Z"/>
        <path d="M70.76,38.74a1.55,1.55,0,1,1-1.55,1.55A1.54,1.54,0,0,1,70.76,38.74Z"/>
        <path d="M70.76,31a1.55,1.55,0,1,1-1.55,1.55A1.55,1.55,0,0,1,70.76,31Z"/>
        <path d="M70.76,23.24a1.55,1.55,0,1,1-1.55,1.55A1.55,1.55,0,0,1,70.76,23.24Z"/>
        <path d="M70.76,15.5A1.55,1.55,0,1,1,69.21,17,1.54,1.54,0,0,1,70.76,15.5Z"/>
        <path d="M70.76,7.75A1.55,1.55,0,1,1,69.21,9.3,1.54,1.54,0,0,1,70.76,7.75Z"/>
        <path d="M70.76,0a1.55,1.55,0,1,1-1.55,1.55A1.54,1.54,0,0,1,70.76,0Z"/>
        <circle cx="75.28" cy="129.42" r="1.55"/>
        <circle cx="75.28" cy="121.67" r="1.55"/>
        <path d="M75.28,112.38a1.55,1.55,0,1,1-1.55,1.55A1.55,1.55,0,0,1,75.28,112.38Z"/>
        <path d="M75.28,104.63a1.55,1.55,0,1,1-1.55,1.55A1.55,1.55,0,0,1,75.28,104.63Z"/>
        <path d="M75.28,96.88a1.55,1.55,0,1,1-1.55,1.55A1.55,1.55,0,0,1,75.28,96.88Z"/>
        <path d="M75.28,89.13a1.55,1.55,0,1,1-1.55,1.55A1.56,1.56,0,0,1,75.28,89.13Z"/>
        <circle cx="75.28" cy="82.93" r="1.55"/>
        <circle cx="75.28" cy="75.19" r="1.55"/>
        <circle cx="75.28" cy="67.44" r="1.55"/>
        <circle cx="75.28" cy="59.69" r="1.55"/>
        <path d="M75.28,50.39a1.55,1.55,0,1,1-1.55,1.55A1.56,1.56,0,0,1,75.28,50.39Z"/>
        <path d="M75.28,42.65a1.55,1.55,0,1,1-1.55,1.55A1.55,1.55,0,0,1,75.28,42.65Z"/>
        <path d="M75.28,34.9a1.55,1.55,0,1,1-1.55,1.55A1.55,1.55,0,0,1,75.28,34.9Z"/>
        <path d="M75.28,27.15a1.55,1.55,0,1,1-1.55,1.55A1.55,1.55,0,0,1,75.28,27.15Z"/>
        <circle cx="75.28" cy="20.95" r="1.55"/>
        <circle cx="75.28" cy="13.2" r="1.55"/>
        <path d="M75.28,3.91a1.55,1.55,0,1,1-1.55,1.54A1.55,1.55,0,0,1,75.28,3.91Z"/>
      </g>
    </g>
  </g>
</svg>
