<svg xmlns="http://www.w3.org/2000/svg" viewBox="0 0 130.97 76.83">
  <g id="Layer_2" data-name="Layer 2">
    <g id="Layer_1-2" data-name="Layer 1">
      <g>
        <path d="M7,1.55A1.55,1.55,0,1,1,5.46,0,1.55,1.55,0,0,1,7,1.55Z"/>
        <path d="M14.75,1.55A1.55,1.55,0,1,1,13.21,0,1.54,1.54,0,0,1,14.75,1.55Z"/>
        <path d="M22.5,1.55A1.55,1.55,0,1,1,21,0,1.54,1.54,0,0,1,22.5,1.55Z"/>
        <path d="M30.25,1.55A1.55,1.55,0,1,1,28.7,0,1.54,1.54,0,0,1,30.25,1.55Z"/>
        <path d="M38,1.55A1.55,1.55,0,1,1,36.45,0,1.55,1.55,0,0,1,38,1.55Z"/>
        <path d="M45.75,1.55A1.55,1.55,0,1,1,44.2,0,1.55,1.55,0,0,1,45.75,1.55Z"/>
        <path d="M53.49,1.55A1.55,1.55,0,1,1,51.94,0,1.54,1.54,0,0,1,53.49,1.55Z"/>
        <path d="M61.24,1.55A1.55,1.55,0,1,1,59.69,0,1.54,1.54,0,0,1,61.24,1.55Z"/>
        <path d="M69,1.55A1.55,1.55,0,1,1,67.44,0,1.55,1.55,0,0,1,69,1.55Z"/>
        <path d="M76.74,1.55A1.55,1.55,0,1,1,75.19,0,1.55,1.55,0,0,1,76.74,1.55Z"/>
        <path d="M84.48,1.55A1.55,1.55,0,1,1,82.94,0,1.54,1.54,0,0,1,84.48,1.55Z"/>
        <path d="M92.23,1.55A1.55,1.55,0,1,1,90.68,0,1.54,1.54,0,0,1,92.23,1.55Z"/>
        <path d="M100,1.55A1.55,1.55,0,1,1,98.43,0,1.54,1.54,0,0,1,100,1.55Z"/>
        <path d="M107.73,1.55A1.55,1.55,0,1,1,106.18,0,1.54,1.54,0,0,1,107.73,1.55Z"/>
        <path d="M115.48,1.55A1.55,1.55,0,1,1,113.93,0,1.55,1.55,0,0,1,115.48,1.55Z"/>
        <path d="M123.22,1.55A1.55,1.55,0,1,1,121.68,0,1.54,1.54,0,0,1,123.22,1.55Z"/>
        <path d="M131,1.55A1.55,1.55,0,1,1,129.42,0,1.54,1.54,0,0,1,131,1.55Z"/>
        <path d="M3.1,6.07A1.55,1.55,0,1,1,1.55,4.52,1.55,1.55,0,0,1,3.1,6.07Z"/>
        <path d="M10.85,6.07A1.55,1.55,0,1,1,9.3,4.52,1.56,1.56,0,0,1,10.85,6.07Z"/>
        <path d="M18.6,6.07a1.55,1.55,0,1,1-1.55-1.55A1.56,1.56,0,0,1,18.6,6.07Z"/>
        <path d="M26.34,6.07a1.55,1.55,0,1,1-1.55-1.55A1.55,1.55,0,0,1,26.34,6.07Z"/>
        <path d="M34.09,6.07a1.55,1.55,0,1,1-1.55-1.55A1.55,1.55,0,0,1,34.09,6.07Z"/>
        <path d="M41.84,6.07a1.55,1.55,0,1,1-1.55-1.55A1.55,1.55,0,0,1,41.84,6.07Z"/>
        <path d="M49.59,6.07A1.55,1.55,0,1,1,48,4.52,1.56,1.56,0,0,1,49.59,6.07Z"/>
        <path d="M57.34,6.07a1.55,1.55,0,1,1-1.55-1.55A1.56,1.56,0,0,1,57.34,6.07Z"/>
        <path d="M65.08,6.07a1.55,1.55,0,1,1-1.54-1.55A1.55,1.55,0,0,1,65.08,6.07Z"/>
        <path d="M72.83,6.07a1.55,1.55,0,1,1-1.55-1.55A1.55,1.55,0,0,1,72.83,6.07Z"/>
        <path d="M80.58,6.07A1.55,1.55,0,1,1,79,4.52,1.56,1.56,0,0,1,80.58,6.07Z"/>
        <path d="M88.33,6.07a1.55,1.55,0,1,1-1.55-1.55A1.56,1.56,0,0,1,88.33,6.07Z"/>
        <path d="M96.07,6.07a1.55,1.55,0,1,1-1.54-1.55A1.55,1.55,0,0,1,96.07,6.07Z"/>
        <path d="M103.82,6.07a1.55,1.55,0,1,1-1.55-1.55A1.55,1.55,0,0,1,103.82,6.07Z"/>
        <path d="M111.57,6.07A1.55,1.55,0,1,1,110,4.52,1.55,1.55,0,0,1,111.57,6.07Z"/>
        <path d="M119.32,6.07a1.55,1.55,0,1,1-1.55-1.55A1.56,1.56,0,0,1,119.32,6.07Z"/>
        <path d="M127.07,6.07a1.55,1.55,0,1,1-1.55-1.55A1.56,1.56,0,0,1,127.07,6.07Z"/>
        <path d="M7,10.2A1.55,1.55,0,1,1,5.46,8.65,1.55,1.55,0,0,1,7,10.2Z"/>
        <path d="M14.75,10.2a1.55,1.55,0,1,1-1.54-1.55A1.54,1.54,0,0,1,14.75,10.2Z"/>
        <path d="M22.5,10.2A1.55,1.55,0,1,1,21,8.65,1.54,1.54,0,0,1,22.5,10.2Z"/>
        <path d="M30.25,10.2A1.55,1.55,0,1,1,28.7,8.65,1.54,1.54,0,0,1,30.25,10.2Z"/>
        <path d="M38,10.2a1.55,1.55,0,1,1-1.55-1.55A1.55,1.55,0,0,1,38,10.2Z"/>
        <path d="M45.75,10.2A1.55,1.55,0,1,1,44.2,8.65,1.55,1.55,0,0,1,45.75,10.2Z"/>
        <path d="M53.49,10.2a1.55,1.55,0,1,1-1.55-1.55A1.54,1.54,0,0,1,53.49,10.2Z"/>
        <path d="M61.24,10.2a1.55,1.55,0,1,1-1.55-1.55A1.54,1.54,0,0,1,61.24,10.2Z"/>
        <path d="M69,10.2a1.55,1.55,0,1,1-1.55-1.55A1.55,1.55,0,0,1,69,10.2Z"/>
        <circle cx="75.19" cy="10.2" r="1.55"/>
        <path d="M84.48,10.2a1.55,1.55,0,1,1-1.54-1.55A1.54,1.54,0,0,1,84.48,10.2Z"/>
        <path d="M92.23,10.2a1.55,1.55,0,1,1-1.55-1.55A1.54,1.54,0,0,1,92.23,10.2Z"/>
        <path d="M100,10.2a1.55,1.55,0,1,1-1.55-1.55A1.54,1.54,0,0,1,100,10.2Z"/>
        <path d="M107.73,10.2a1.55,1.55,0,1,1-1.55-1.55A1.54,1.54,0,0,1,107.73,10.2Z"/>
        <path d="M115.48,10.2a1.55,1.55,0,1,1-1.55-1.55A1.55,1.55,0,0,1,115.48,10.2Z"/>
        <path d="M123.22,10.2a1.55,1.55,0,1,1-1.54-1.55A1.54,1.54,0,0,1,123.22,10.2Z"/>
        <path d="M131,10.2a1.55,1.55,0,1,1-1.55-1.55A1.54,1.54,0,0,1,131,10.2Z"/>
        <path d="M3.1,14.72a1.55,1.55,0,1,1-1.55-1.55A1.54,1.54,0,0,1,3.1,14.72Z"/>
        <path d="M10.85,14.72A1.55,1.55,0,1,1,9.3,13.17,1.55,1.55,0,0,1,10.85,14.72Z"/>
        <path d="M18.6,14.72a1.55,1.55,0,1,1-1.55-1.55A1.55,1.55,0,0,1,18.6,14.72Z"/>
        <path d="M26.34,14.72a1.55,1.55,0,1,1-1.55-1.55A1.54,1.54,0,0,1,26.34,14.72Z"/>
        <path d="M34.09,14.72a1.55,1.55,0,1,1-1.55-1.55A1.54,1.54,0,0,1,34.09,14.72Z"/>
        <path d="M41.84,14.72a1.55,1.55,0,1,1-1.55-1.55A1.54,1.54,0,0,1,41.84,14.72Z"/>
        <path d="M49.59,14.72A1.55,1.55,0,1,1,48,13.17,1.55,1.55,0,0,1,49.59,14.72Z"/>
        <path d="M57.34,14.72a1.55,1.55,0,1,1-1.55-1.55A1.55,1.55,0,0,1,57.34,14.72Z"/>
        <path d="M65.08,14.72a1.55,1.55,0,1,1-1.54-1.55A1.54,1.54,0,0,1,65.08,14.72Z"/>
        <path d="M72.83,14.72a1.55,1.55,0,1,1-1.55-1.55A1.54,1.54,0,0,1,72.83,14.72Z"/>
        <path d="M80.58,14.72A1.55,1.55,0,1,1,79,13.17,1.55,1.55,0,0,1,80.58,14.72Z"/>
        <path d="M88.33,14.72a1.55,1.55,0,1,1-1.55-1.55A1.55,1.55,0,0,1,88.33,14.72Z"/>
        <path d="M96.07,14.72a1.55,1.55,0,1,1-1.54-1.55A1.54,1.54,0,0,1,96.07,14.72Z"/>
        <path d="M103.82,14.72a1.55,1.55,0,1,1-1.55-1.55A1.54,1.54,0,0,1,103.82,14.72Z"/>
        <path d="M111.57,14.72A1.55,1.55,0,1,1,110,13.17,1.54,1.54,0,0,1,111.57,14.72Z"/>
        <path d="M119.32,14.72a1.55,1.55,0,1,1-1.55-1.55A1.55,1.55,0,0,1,119.32,14.72Z"/>
        <path d="M127.07,14.72a1.55,1.55,0,1,1-1.55-1.55A1.55,1.55,0,0,1,127.07,14.72Z"/>
        <path d="M7,18.85A1.55,1.55,0,1,1,5.46,17.3,1.55,1.55,0,0,1,7,18.85Z"/>
        <path d="M14.75,18.85a1.55,1.55,0,1,1-3.1,0,1.55,1.55,0,1,1,3.1,0Z"/>
        <path d="M22.5,18.85A1.55,1.55,0,1,1,21,17.3,1.54,1.54,0,0,1,22.5,18.85Z"/>
        <path d="M30.25,18.85A1.55,1.55,0,1,1,28.7,17.3,1.54,1.54,0,0,1,30.25,18.85Z"/>
        <path d="M38,18.85a1.55,1.55,0,1,1-1.55-1.55A1.55,1.55,0,0,1,38,18.85Z"/>
        <path d="M45.75,18.85A1.55,1.55,0,1,1,44.2,17.3,1.55,1.55,0,0,1,45.75,18.85Z"/>
        <path d="M53.49,18.85a1.55,1.55,0,1,1-1.55-1.55A1.54,1.54,0,0,1,53.49,18.85Z"/>
        <path d="M61.24,18.85a1.55,1.55,0,1,1-1.55-1.55A1.54,1.54,0,0,1,61.24,18.85Z"/>
        <path d="M69,18.85a1.55,1.55,0,1,1-1.55-1.55A1.55,1.55,0,0,1,69,18.85Z"/>
        <path d="M76.74,18.85a1.55,1.55,0,1,1-1.55-1.55A1.55,1.55,0,0,1,76.74,18.85Z"/>
        <path d="M84.48,18.85a1.55,1.55,0,1,1-1.54-1.55A1.54,1.54,0,0,1,84.48,18.85Z"/>
        <path d="M92.23,18.85a1.55,1.55,0,1,1-1.55-1.55A1.54,1.54,0,0,1,92.23,18.85Z"/>
        <path d="M100,18.85a1.55,1.55,0,1,1-1.55-1.55A1.54,1.54,0,0,1,100,18.85Z"/>
        <path d="M107.73,18.85a1.55,1.55,0,1,1-1.55-1.55A1.54,1.54,0,0,1,107.73,18.85Z"/>
        <path d="M115.48,18.85a1.55,1.55,0,1,1-1.55-1.55A1.55,1.55,0,0,1,115.48,18.85Z"/>
        <path d="M123.22,18.85a1.55,1.55,0,1,1-3.1,0,1.55,1.55,0,1,1,3.1,0Z"/>
        <path d="M131,18.85a1.55,1.55,0,1,1-1.55-1.55A1.54,1.54,0,0,1,131,18.85Z"/>
        <path d="M3.1,23.37a1.55,1.55,0,1,1-1.55-1.55A1.54,1.54,0,0,1,3.1,23.37Z"/>
        <path d="M10.85,23.37A1.55,1.55,0,1,1,9.3,21.82,1.55,1.55,0,0,1,10.85,23.37Z"/>
        <path d="M18.6,23.37a1.55,1.55,0,1,1-1.55-1.55A1.55,1.55,0,0,1,18.6,23.37Z"/>
        <path d="M26.34,23.37a1.55,1.55,0,1,1-1.55-1.55A1.54,1.54,0,0,1,26.34,23.37Z"/>
        <path d="M34.09,23.37a1.55,1.55,0,1,1-1.55-1.55A1.54,1.54,0,0,1,34.09,23.37Z"/>
        <path d="M41.84,23.37a1.55,1.55,0,1,1-1.55-1.55A1.54,1.54,0,0,1,41.84,23.37Z"/>
        <path d="M49.59,23.37A1.55,1.55,0,1,1,48,21.82,1.55,1.55,0,0,1,49.59,23.37Z"/>
        <path d="M57.34,23.37a1.55,1.55,0,1,1-1.55-1.55A1.55,1.55,0,0,1,57.34,23.37Z"/>
        <path d="M65.08,23.37a1.55,1.55,0,1,1-3.1,0,1.55,1.55,0,1,1,3.1,0Z"/>
        <path d="M72.83,23.37a1.55,1.55,0,1,1-1.55-1.55A1.54,1.54,0,0,1,72.83,23.37Z"/>
        <path d="M80.58,23.37A1.55,1.55,0,1,1,79,21.82,1.55,1.55,0,0,1,80.58,23.37Z"/>
        <path d="M88.33,23.37a1.55,1.55,0,1,1-1.55-1.55A1.55,1.55,0,0,1,88.33,23.37Z"/>
        <path d="M96.07,23.37a1.55,1.55,0,1,1-1.54-1.55A1.54,1.54,0,0,1,96.07,23.37Z"/>
        <path d="M103.82,23.37a1.55,1.55,0,1,1-1.55-1.55A1.54,1.54,0,0,1,103.82,23.37Z"/>
        <path d="M111.57,23.37A1.55,1.55,0,1,1,110,21.82,1.54,1.54,0,0,1,111.57,23.37Z"/>
        <path d="M119.32,23.37a1.55,1.55,0,1,1-1.55-1.55A1.55,1.55,0,0,1,119.32,23.37Z"/>
        <path d="M127.07,23.37a1.55,1.55,0,1,1-1.55-1.55A1.55,1.55,0,0,1,127.07,23.37Z"/>
        <path d="M7,27.5A1.55,1.55,0,1,1,5.46,26,1.55,1.55,0,0,1,7,27.5Z"/>
        <path d="M14.75,27.5a1.55,1.55,0,1,1-3.1,0,1.55,1.55,0,1,1,3.1,0Z"/>
        <path d="M22.5,27.5A1.55,1.55,0,1,1,21,26,1.54,1.54,0,0,1,22.5,27.5Z"/>
        <path d="M30.25,27.5A1.55,1.55,0,1,1,28.7,26,1.54,1.54,0,0,1,30.25,27.5Z"/>
        <path d="M38,27.5A1.55,1.55,0,1,1,36.45,26,1.55,1.55,0,0,1,38,27.5Z"/>
        <path d="M45.75,27.5A1.55,1.55,0,1,1,44.2,26,1.55,1.55,0,0,1,45.75,27.5Z"/>
        <path d="M53.49,27.5A1.55,1.55,0,1,1,51.94,26,1.54,1.54,0,0,1,53.49,27.5Z"/>
        <path d="M61.24,27.5A1.55,1.55,0,1,1,59.69,26,1.54,1.54,0,0,1,61.24,27.5Z"/>
        <path d="M69,27.5A1.55,1.55,0,1,1,67.44,26,1.55,1.55,0,0,1,69,27.5Z"/>
        <path d="M76.74,27.5A1.55,1.55,0,1,1,75.19,26,1.55,1.55,0,0,1,76.74,27.5Z"/>
        <path d="M84.48,27.5A1.55,1.55,0,1,1,82.94,26,1.54,1.54,0,0,1,84.48,27.5Z"/>
        <path d="M92.23,27.5A1.55,1.55,0,1,1,90.68,26,1.54,1.54,0,0,1,92.23,27.5Z"/>
        <path d="M100,27.5A1.55,1.55,0,1,1,98.43,26,1.54,1.54,0,0,1,100,27.5Z"/>
        <path d="M107.73,27.5A1.55,1.55,0,1,1,106.18,26,1.54,1.54,0,0,1,107.73,27.5Z"/>
        <path d="M115.48,27.5A1.55,1.55,0,1,1,113.93,26,1.55,1.55,0,0,1,115.48,27.5Z"/>
        <path d="M123.22,27.5a1.55,1.55,0,1,1-3.1,0,1.55,1.55,0,1,1,3.1,0Z"/>
        <path d="M131,27.5A1.55,1.55,0,1,1,129.42,26,1.54,1.54,0,0,1,131,27.5Z"/>
        <path d="M3.1,32a1.55,1.55,0,1,1-1.55-1.55A1.54,1.54,0,0,1,3.1,32Z"/>
        <path d="M10.85,32A1.55,1.55,0,1,1,9.3,30.47,1.55,1.55,0,0,1,10.85,32Z"/>
        <path d="M18.6,32a1.55,1.55,0,1,1-1.55-1.55A1.55,1.55,0,0,1,18.6,32Z"/>
        <path d="M26.34,32a1.55,1.55,0,1,1-1.55-1.55A1.54,1.54,0,0,1,26.34,32Z"/>
        <path d="M34.09,32a1.55,1.55,0,1,1-1.55-1.55A1.54,1.54,0,0,1,34.09,32Z"/>
        <path d="M41.84,32a1.55,1.55,0,1,1-1.55-1.55A1.54,1.54,0,0,1,41.84,32Z"/>
        <path d="M49.59,32A1.55,1.55,0,1,1,48,30.47,1.55,1.55,0,0,1,49.59,32Z"/>
        <path d="M57.34,32a1.55,1.55,0,1,1-1.55-1.55A1.55,1.55,0,0,1,57.34,32Z"/>
        <path d="M65.08,32A1.55,1.55,0,1,1,62,32a1.55,1.55,0,1,1,3.1,0Z"/>
        <path d="M72.83,32a1.55,1.55,0,1,1-1.55-1.55A1.54,1.54,0,0,1,72.83,32Z"/>
        <path d="M80.58,32A1.55,1.55,0,1,1,79,30.47,1.55,1.55,0,0,1,80.58,32Z"/>
        <path d="M88.33,32a1.55,1.55,0,1,1-1.55-1.55A1.55,1.55,0,0,1,88.33,32Z"/>
        <path d="M96.07,32a1.55,1.55,0,1,1-1.54-1.55A1.54,1.54,0,0,1,96.07,32Z"/>
        <path d="M103.82,32a1.55,1.55,0,1,1-1.55-1.55A1.54,1.54,0,0,1,103.82,32Z"/>
        <path d="M111.57,32A1.55,1.55,0,1,1,110,30.47,1.54,1.54,0,0,1,111.57,32Z"/>
        <path d="M119.32,32a1.55,1.55,0,1,1-1.55-1.55A1.55,1.55,0,0,1,119.32,32Z"/>
        <path d="M127.07,32a1.55,1.55,0,1,1-1.55-1.55A1.55,1.55,0,0,1,127.07,32Z"/>
        <path d="M7,36.16a1.55,1.55,0,1,1-1.55-1.55A1.55,1.55,0,0,1,7,36.16Z"/>
        <path d="M14.75,36.16a1.55,1.55,0,1,1-1.54-1.55A1.54,1.54,0,0,1,14.75,36.16Z"/>
        <path d="M22.5,36.16A1.55,1.55,0,1,1,21,34.61,1.54,1.54,0,0,1,22.5,36.16Z"/>
        <path d="M30.25,36.16a1.55,1.55,0,1,1-1.55-1.55A1.54,1.54,0,0,1,30.25,36.16Z"/>
        <path d="M38,36.16a1.55,1.55,0,1,1-1.55-1.55A1.55,1.55,0,0,1,38,36.16Z"/>
        <path d="M45.75,36.16a1.55,1.55,0,1,1-1.55-1.55A1.55,1.55,0,0,1,45.75,36.16Z"/>
        <path d="M53.49,36.16a1.55,1.55,0,1,1-1.55-1.55A1.54,1.54,0,0,1,53.49,36.16Z"/>
        <path d="M61.24,36.16a1.55,1.55,0,1,1-1.55-1.55A1.54,1.54,0,0,1,61.24,36.16Z"/>
        <path d="M69,36.16a1.55,1.55,0,1,1-1.55-1.55A1.55,1.55,0,0,1,69,36.16Z"/>
        <path d="M76.74,36.16a1.55,1.55,0,1,1-1.55-1.55A1.55,1.55,0,0,1,76.74,36.16Z"/>
        <path d="M84.48,36.16a1.55,1.55,0,1,1-1.54-1.55A1.54,1.54,0,0,1,84.48,36.16Z"/>
        <path d="M92.23,36.16a1.55,1.55,0,1,1-1.55-1.55A1.54,1.54,0,0,1,92.23,36.16Z"/>
        <path d="M100,36.16a1.55,1.55,0,1,1-1.55-1.55A1.54,1.54,0,0,1,100,36.16Z"/>
        <path d="M107.73,36.16a1.55,1.55,0,1,1-1.55-1.55A1.54,1.54,0,0,1,107.73,36.16Z"/>
        <path d="M115.48,36.16a1.55,1.55,0,1,1-1.55-1.55A1.55,1.55,0,0,1,115.48,36.16Z"/>
        <path d="M123.22,36.16a1.55,1.55,0,1,1-1.54-1.55A1.54,1.54,0,0,1,123.22,36.16Z"/>
        <path d="M131,36.16a1.55,1.55,0,1,1-1.55-1.55A1.54,1.54,0,0,1,131,36.16Z"/>
        <path d="M3.1,40.67a1.55,1.55,0,1,1-1.55-1.55A1.54,1.54,0,0,1,3.1,40.67Z"/>
        <path d="M10.85,40.67A1.55,1.55,0,1,1,9.3,39.12,1.55,1.55,0,0,1,10.85,40.67Z"/>
        <path d="M18.6,40.67a1.55,1.55,0,1,1-1.55-1.55A1.55,1.55,0,0,1,18.6,40.67Z"/>
        <path d="M26.34,40.67a1.55,1.55,0,1,1-1.55-1.55A1.54,1.54,0,0,1,26.34,40.67Z"/>
        <path d="M34.09,40.67a1.55,1.55,0,1,1-1.55-1.55A1.54,1.54,0,0,1,34.09,40.67Z"/>
        <path d="M41.84,40.67a1.55,1.55,0,1,1-1.55-1.55A1.54,1.54,0,0,1,41.84,40.67Z"/>
        <path d="M49.59,40.67A1.55,1.55,0,1,1,48,39.12,1.55,1.55,0,0,1,49.59,40.67Z"/>
        <path d="M57.34,40.67a1.55,1.55,0,1,1-1.55-1.55A1.55,1.55,0,0,1,57.34,40.67Z"/>
        <path d="M65.08,40.67a1.55,1.55,0,1,1-3.1,0,1.55,1.55,0,1,1,3.1,0Z"/>
        <path d="M72.83,40.67a1.55,1.55,0,1,1-1.55-1.55A1.54,1.54,0,0,1,72.83,40.67Z"/>
        <path d="M80.58,40.67A1.55,1.55,0,1,1,79,39.12,1.55,1.55,0,0,1,80.58,40.67Z"/>
        <path d="M88.33,40.67a1.55,1.55,0,1,1-1.55-1.55A1.55,1.55,0,0,1,88.33,40.67Z"/>
        <path d="M96.07,40.67a1.55,1.55,0,1,1-1.54-1.55A1.54,1.54,0,0,1,96.07,40.67Z"/>
        <path d="M103.82,40.67a1.55,1.55,0,1,1-1.55-1.55A1.54,1.54,0,0,1,103.82,40.67Z"/>
        <path d="M111.57,40.67A1.55,1.55,0,1,1,110,39.12,1.54,1.54,0,0,1,111.57,40.67Z"/>
        <path d="M119.32,40.67a1.55,1.55,0,1,1-1.55-1.55A1.55,1.55,0,0,1,119.32,40.67Z"/>
        <path d="M127.07,40.67a1.55,1.55,0,1,1-1.55-1.55A1.55,1.55,0,0,1,127.07,40.67Z"/>
        <path d="M7,44.81a1.55,1.55,0,1,1-1.55-1.55A1.56,1.56,0,0,1,7,44.81Z"/>
        <path d="M14.75,44.81a1.55,1.55,0,1,1-1.54-1.55A1.55,1.55,0,0,1,14.75,44.81Z"/>
        <path d="M22.5,44.81A1.55,1.55,0,1,1,21,43.26,1.55,1.55,0,0,1,22.5,44.81Z"/>
        <path d="M30.25,44.81a1.55,1.55,0,1,1-1.55-1.55A1.55,1.55,0,0,1,30.25,44.81Z"/>
        <path d="M38,44.81a1.55,1.55,0,1,1-1.55-1.55A1.56,1.56,0,0,1,38,44.81Z"/>
        <path d="M45.75,44.81a1.55,1.55,0,1,1-1.55-1.55A1.56,1.56,0,0,1,45.75,44.81Z"/>
        <path d="M53.49,44.81a1.55,1.55,0,1,1-1.55-1.55A1.55,1.55,0,0,1,53.49,44.81Z"/>
        <path d="M61.24,44.81a1.55,1.55,0,1,1-1.55-1.55A1.55,1.55,0,0,1,61.24,44.81Z"/>
        <path d="M69,44.81a1.55,1.55,0,1,1-1.55-1.55A1.56,1.56,0,0,1,69,44.81Z"/>
        <path d="M76.74,44.81a1.55,1.55,0,1,1-1.55-1.55A1.56,1.56,0,0,1,76.74,44.81Z"/>
        <path d="M84.48,44.81a1.55,1.55,0,1,1-1.54-1.55A1.55,1.55,0,0,1,84.48,44.81Z"/>
        <path d="M92.23,44.81a1.55,1.55,0,1,1-1.55-1.55A1.55,1.55,0,0,1,92.23,44.81Z"/>
        <path d="M100,44.81a1.55,1.55,0,1,1-1.55-1.55A1.55,1.55,0,0,1,100,44.81Z"/>
        <path d="M107.73,44.81a1.55,1.55,0,1,1-1.55-1.55A1.55,1.55,0,0,1,107.73,44.81Z"/>
        <path d="M115.48,44.81a1.55,1.55,0,1,1-1.55-1.55A1.56,1.56,0,0,1,115.48,44.81Z"/>
        <path d="M123.22,44.81a1.55,1.55,0,1,1-1.54-1.55A1.55,1.55,0,0,1,123.22,44.81Z"/>
        <path d="M131,44.81a1.55,1.55,0,1,1-1.55-1.55A1.55,1.55,0,0,1,131,44.81Z"/>
        <path d="M3.1,49.33a1.55,1.55,0,1,1-1.55-1.55A1.55,1.55,0,0,1,3.1,49.33Z"/>
        <path d="M10.85,49.33A1.55,1.55,0,1,1,9.3,47.78,1.56,1.56,0,0,1,10.85,49.33Z"/>
        <path d="M18.6,49.33a1.55,1.55,0,1,1-1.55-1.55A1.56,1.56,0,0,1,18.6,49.33Z"/>
        <path d="M26.34,49.33a1.55,1.55,0,1,1-1.55-1.55A1.55,1.55,0,0,1,26.34,49.33Z"/>
        <path d="M34.09,49.33a1.55,1.55,0,1,1-1.55-1.55A1.55,1.55,0,0,1,34.09,49.33Z"/>
        <path d="M41.84,49.33a1.55,1.55,0,1,1-1.55-1.55A1.55,1.55,0,0,1,41.84,49.33Z"/>
        <path d="M49.59,49.33A1.55,1.55,0,1,1,48,47.78,1.56,1.56,0,0,1,49.59,49.33Z"/>
        <path d="M57.34,49.33a1.55,1.55,0,1,1-1.55-1.55A1.56,1.56,0,0,1,57.34,49.33Z"/>
        <path d="M65.08,49.33a1.55,1.55,0,1,1-1.54-1.55A1.55,1.55,0,0,1,65.08,49.33Z"/>
        <path d="M72.83,49.33a1.55,1.55,0,1,1-1.55-1.55A1.55,1.55,0,0,1,72.83,49.33Z"/>
        <path d="M80.58,49.33A1.55,1.55,0,1,1,79,47.78,1.56,1.56,0,0,1,80.58,49.33Z"/>
        <path d="M88.33,49.33a1.55,1.55,0,1,1-1.55-1.55A1.56,1.56,0,0,1,88.33,49.33Z"/>
        <path d="M96.07,49.33a1.55,1.55,0,1,1-1.54-1.55A1.55,1.55,0,0,1,96.07,49.33Z"/>
        <path d="M103.82,49.33a1.55,1.55,0,1,1-1.55-1.55A1.55,1.55,0,0,1,103.82,49.33Z"/>
        <path d="M111.57,49.33A1.55,1.55,0,1,1,110,47.78,1.55,1.55,0,0,1,111.57,49.33Z"/>
        <path d="M119.32,49.33a1.55,1.55,0,1,1-1.55-1.55A1.56,1.56,0,0,1,119.32,49.33Z"/>
        <path d="M127.07,49.33a1.55,1.55,0,1,1-1.55-1.55A1.56,1.56,0,0,1,127.07,49.33Z"/>
        <path d="M7,53.46a1.55,1.55,0,1,1-1.55-1.55A1.56,1.56,0,0,1,7,53.46Z"/>
        <path d="M14.75,53.46a1.55,1.55,0,1,1-1.54-1.55A1.55,1.55,0,0,1,14.75,53.46Z"/>
        <path d="M22.5,53.46A1.55,1.55,0,1,1,21,51.91,1.55,1.55,0,0,1,22.5,53.46Z"/>
        <path d="M30.25,53.46a1.55,1.55,0,1,1-1.55-1.55A1.55,1.55,0,0,1,30.25,53.46Z"/>
        <path d="M38,53.46a1.55,1.55,0,1,1-1.55-1.55A1.56,1.56,0,0,1,38,53.46Z"/>
        <path d="M45.75,53.46a1.55,1.55,0,1,1-1.55-1.55A1.56,1.56,0,0,1,45.75,53.46Z"/>
        <path d="M53.49,53.46a1.55,1.55,0,1,1-1.55-1.55A1.55,1.55,0,0,1,53.49,53.46Z"/>
        <path d="M61.24,53.46a1.55,1.55,0,1,1-1.55-1.55A1.55,1.55,0,0,1,61.24,53.46Z"/>
        <path d="M69,53.46a1.55,1.55,0,1,1-1.55-1.55A1.56,1.56,0,0,1,69,53.46Z"/>
        <path d="M76.74,53.46a1.55,1.55,0,1,1-1.55-1.55A1.56,1.56,0,0,1,76.74,53.46Z"/>
        <path d="M84.48,53.46a1.55,1.55,0,1,1-1.54-1.55A1.55,1.55,0,0,1,84.48,53.46Z"/>
        <path d="M92.23,53.46a1.55,1.55,0,1,1-1.55-1.55A1.55,1.55,0,0,1,92.23,53.46Z"/>
        <path d="M100,53.46a1.55,1.55,0,1,1-1.55-1.55A1.55,1.55,0,0,1,100,53.46Z"/>
        <path d="M107.73,53.46a1.55,1.55,0,1,1-1.55-1.55A1.55,1.55,0,0,1,107.73,53.46Z"/>
        <path d="M115.48,53.46a1.55,1.55,0,1,1-1.55-1.55A1.56,1.56,0,0,1,115.48,53.46Z"/>
        <path d="M123.22,53.46a1.55,1.55,0,1,1-1.54-1.55A1.55,1.55,0,0,1,123.22,53.46Z"/>
        <path d="M131,53.46a1.55,1.55,0,1,1-1.55-1.55A1.55,1.55,0,0,1,131,53.46Z"/>
        <path d="M3.1,58a1.55,1.55,0,1,1-1.55-1.55A1.55,1.55,0,0,1,3.1,58Z"/>
        <path d="M10.85,58A1.55,1.55,0,1,1,9.3,56.43,1.56,1.56,0,0,1,10.85,58Z"/>
        <path d="M18.6,58a1.55,1.55,0,1,1-1.55-1.55A1.56,1.56,0,0,1,18.6,58Z"/>
        <path d="M26.34,58a1.55,1.55,0,1,1-1.55-1.55A1.55,1.55,0,0,1,26.34,58Z"/>
        <path d="M34.09,58a1.55,1.55,0,1,1-1.55-1.55A1.55,1.55,0,0,1,34.09,58Z"/>
        <path d="M41.84,58a1.55,1.55,0,1,1-1.55-1.55A1.55,1.55,0,0,1,41.84,58Z"/>
        <path d="M49.59,58A1.55,1.55,0,1,1,48,56.43,1.56,1.56,0,0,1,49.59,58Z"/>
        <path d="M57.34,58a1.55,1.55,0,1,1-1.55-1.55A1.56,1.56,0,0,1,57.34,58Z"/>
        <path d="M65.08,58a1.55,1.55,0,1,1-1.54-1.55A1.55,1.55,0,0,1,65.08,58Z"/>
        <path d="M72.83,58a1.55,1.55,0,1,1-1.55-1.55A1.55,1.55,0,0,1,72.83,58Z"/>
        <path d="M80.58,58A1.55,1.55,0,1,1,79,56.43,1.56,1.56,0,0,1,80.58,58Z"/>
        <path d="M88.33,58a1.55,1.55,0,1,1-1.55-1.55A1.56,1.56,0,0,1,88.33,58Z"/>
        <path d="M96.07,58a1.55,1.55,0,1,1-1.54-1.55A1.55,1.55,0,0,1,96.07,58Z"/>
        <path d="M103.82,58a1.55,1.55,0,1,1-1.55-1.55A1.55,1.55,0,0,1,103.82,58Z"/>
        <path d="M111.57,58A1.55,1.55,0,1,1,110,56.43,1.55,1.55,0,0,1,111.57,58Z"/>
        <path d="M119.32,58a1.55,1.55,0,1,1-1.55-1.55A1.56,1.56,0,0,1,119.32,58Z"/>
        <path d="M127.07,58a1.55,1.55,0,1,1-1.55-1.55A1.56,1.56,0,0,1,127.07,58Z"/>
        <path d="M7,62.11a1.55,1.55,0,1,1-1.55-1.55A1.56,1.56,0,0,1,7,62.11Z"/>
        <path d="M14.75,62.11a1.55,1.55,0,1,1-1.54-1.55A1.55,1.55,0,0,1,14.75,62.11Z"/>
        <path d="M22.5,62.11A1.55,1.55,0,1,1,21,60.56,1.55,1.55,0,0,1,22.5,62.11Z"/>
        <path d="M30.25,62.11a1.55,1.55,0,1,1-1.55-1.55A1.55,1.55,0,0,1,30.25,62.11Z"/>
        <path d="M38,62.11a1.55,1.55,0,1,1-1.55-1.55A1.56,1.56,0,0,1,38,62.11Z"/>
        <path d="M45.75,62.11a1.55,1.55,0,1,1-1.55-1.55A1.56,1.56,0,0,1,45.75,62.11Z"/>
        <path d="M53.49,62.11a1.55,1.55,0,1,1-1.55-1.55A1.55,1.55,0,0,1,53.49,62.11Z"/>
        <path d="M61.24,62.11a1.55,1.55,0,1,1-1.55-1.55A1.55,1.55,0,0,1,61.24,62.11Z"/>
        <path d="M69,62.11a1.55,1.55,0,1,1-1.55-1.55A1.56,1.56,0,0,1,69,62.11Z"/>
        <path d="M76.74,62.11a1.55,1.55,0,1,1-1.55-1.55A1.56,1.56,0,0,1,76.74,62.11Z"/>
        <path d="M84.48,62.11a1.55,1.55,0,1,1-1.54-1.55A1.55,1.55,0,0,1,84.48,62.11Z"/>
        <path d="M92.23,62.11a1.55,1.55,0,1,1-1.55-1.55A1.55,1.55,0,0,1,92.23,62.11Z"/>
        <path d="M100,62.11a1.55,1.55,0,1,1-1.55-1.55A1.55,1.55,0,0,1,100,62.11Z"/>
        <path d="M107.73,62.11a1.55,1.55,0,1,1-1.55-1.55A1.55,1.55,0,0,1,107.73,62.11Z"/>
        <path d="M115.48,62.11a1.55,1.55,0,1,1-1.55-1.55A1.56,1.56,0,0,1,115.48,62.11Z"/>
        <path d="M123.22,62.11a1.55,1.55,0,1,1-1.54-1.55A1.55,1.55,0,0,1,123.22,62.11Z"/>
        <path d="M131,62.11a1.55,1.55,0,1,1-1.55-1.55A1.55,1.55,0,0,1,131,62.11Z"/>
        <path d="M3.1,66.63a1.55,1.55,0,1,1-1.55-1.55A1.55,1.55,0,0,1,3.1,66.63Z"/>
        <path d="M10.85,66.63A1.55,1.55,0,1,1,9.3,65.08,1.56,1.56,0,0,1,10.85,66.63Z"/>
        <path d="M18.6,66.63a1.55,1.55,0,1,1-1.55-1.55A1.56,1.56,0,0,1,18.6,66.63Z"/>
        <path d="M26.34,66.63a1.55,1.55,0,1,1-1.55-1.55A1.55,1.55,0,0,1,26.34,66.63Z"/>
        <path d="M34.09,66.63a1.55,1.55,0,1,1-1.55-1.55A1.55,1.55,0,0,1,34.09,66.63Z"/>
        <path d="M41.84,66.63a1.55,1.55,0,1,1-1.55-1.55A1.55,1.55,0,0,1,41.84,66.63Z"/>
        <path d="M49.59,66.63A1.55,1.55,0,1,1,48,65.08,1.56,1.56,0,0,1,49.59,66.63Z"/>
        <path d="M57.34,66.63a1.55,1.55,0,1,1-1.55-1.55A1.56,1.56,0,0,1,57.34,66.63Z"/>
        <path d="M65.08,66.63a1.55,1.55,0,1,1-1.54-1.55A1.55,1.55,0,0,1,65.08,66.63Z"/>
        <path d="M72.83,66.63a1.55,1.55,0,1,1-1.55-1.55A1.55,1.55,0,0,1,72.83,66.63Z"/>
        <path d="M80.58,66.63A1.55,1.55,0,1,1,79,65.08,1.56,1.56,0,0,1,80.58,66.63Z"/>
        <path d="M88.33,66.63a1.55,1.55,0,1,1-1.55-1.55A1.56,1.56,0,0,1,88.33,66.63Z"/>
        <path d="M96.07,66.63a1.55,1.55,0,1,1-1.54-1.55A1.55,1.55,0,0,1,96.07,66.63Z"/>
        <path d="M103.82,66.63a1.55,1.55,0,1,1-1.55-1.55A1.55,1.55,0,0,1,103.82,66.63Z"/>
        <path d="M111.57,66.63A1.55,1.55,0,1,1,110,65.08,1.55,1.55,0,0,1,111.57,66.63Z"/>
        <path d="M119.32,66.63a1.55,1.55,0,1,1-1.55-1.55A1.56,1.56,0,0,1,119.32,66.63Z"/>
        <path d="M127.07,66.63a1.55,1.55,0,1,1-1.55-1.55A1.56,1.56,0,0,1,127.07,66.63Z"/>
        <path d="M7,70.76a1.55,1.55,0,1,1-1.55-1.55A1.55,1.55,0,0,1,7,70.76Z"/>
        <path d="M14.75,70.76a1.55,1.55,0,1,1-1.54-1.55A1.54,1.54,0,0,1,14.75,70.76Z"/>
        <path d="M22.5,70.76A1.55,1.55,0,1,1,21,69.21,1.54,1.54,0,0,1,22.5,70.76Z"/>
        <path d="M30.25,70.76a1.55,1.55,0,1,1-1.55-1.55A1.54,1.54,0,0,1,30.25,70.76Z"/>
        <path d="M38,70.76a1.55,1.55,0,1,1-1.55-1.55A1.55,1.55,0,0,1,38,70.76Z"/>
        <path d="M45.75,70.76a1.55,1.55,0,1,1-1.55-1.55A1.55,1.55,0,0,1,45.75,70.76Z"/>
        <path d="M53.49,70.76a1.55,1.55,0,1,1-1.55-1.55A1.54,1.54,0,0,1,53.49,70.76Z"/>
        <path d="M61.24,70.76a1.55,1.55,0,1,1-1.55-1.55A1.54,1.54,0,0,1,61.24,70.76Z"/>
        <path d="M69,70.76a1.55,1.55,0,1,1-1.55-1.55A1.55,1.55,0,0,1,69,70.76Z"/>
        <path d="M76.74,70.76a1.55,1.55,0,1,1-1.55-1.55A1.55,1.55,0,0,1,76.74,70.76Z"/>
        <path d="M84.48,70.76a1.55,1.55,0,1,1-1.54-1.55A1.54,1.54,0,0,1,84.48,70.76Z"/>
        <path d="M92.23,70.76a1.55,1.55,0,1,1-1.55-1.55A1.54,1.54,0,0,1,92.23,70.76Z"/>
        <path d="M100,70.76a1.55,1.55,0,1,1-1.55-1.55A1.54,1.54,0,0,1,100,70.76Z"/>
        <path d="M107.73,70.76a1.55,1.55,0,1,1-1.55-1.55A1.54,1.54,0,0,1,107.73,70.76Z"/>
        <path d="M115.48,70.76a1.55,1.55,0,1,1-1.55-1.55A1.55,1.55,0,0,1,115.48,70.76Z"/>
        <path d="M123.22,70.76a1.55,1.55,0,1,1-1.54-1.55A1.54,1.54,0,0,1,123.22,70.76Z"/>
        <path d="M131,70.76a1.55,1.55,0,1,1-1.55-1.55A1.54,1.54,0,0,1,131,70.76Z"/>
        <path d="M3.1,75.28a1.55,1.55,0,1,1-1.55-1.55A1.54,1.54,0,0,1,3.1,75.28Z"/>
        <path d="M10.85,75.28A1.55,1.55,0,1,1,9.3,73.73,1.55,1.55,0,0,1,10.85,75.28Z"/>
        <path d="M18.6,75.28a1.55,1.55,0,1,1-1.55-1.55A1.55,1.55,0,0,1,18.6,75.28Z"/>
        <path d="M26.34,75.28a1.55,1.55,0,1,1-1.55-1.55A1.54,1.54,0,0,1,26.34,75.28Z"/>
        <path d="M34.09,75.28a1.55,1.55,0,1,1-1.55-1.55A1.54,1.54,0,0,1,34.09,75.28Z"/>
        <path d="M41.84,75.28a1.55,1.55,0,1,1-1.55-1.55A1.54,1.54,0,0,1,41.84,75.28Z"/>
        <path d="M49.59,75.28A1.55,1.55,0,1,1,48,73.73,1.55,1.55,0,0,1,49.59,75.28Z"/>
        <path d="M57.34,75.28a1.55,1.55,0,1,1-1.55-1.55A1.55,1.55,0,0,1,57.34,75.28Z"/>
        <path d="M65.08,75.28a1.55,1.55,0,1,1-1.54-1.55A1.54,1.54,0,0,1,65.08,75.28Z"/>
        <path d="M72.83,75.28a1.55,1.55,0,1,1-1.55-1.55A1.54,1.54,0,0,1,72.83,75.28Z"/>
        <path d="M80.58,75.28A1.55,1.55,0,1,1,79,73.73,1.55,1.55,0,0,1,80.58,75.28Z"/>
        <path d="M88.33,75.28a1.55,1.55,0,1,1-1.55-1.55A1.55,1.55,0,0,1,88.33,75.28Z"/>
        <circle cx="94.53" cy="75.28" r="1.55"/>
        <path d="M103.82,75.28a1.55,1.55,0,1,1-1.55-1.55A1.54,1.54,0,0,1,103.82,75.28Z"/>
        <path d="M111.57,75.28A1.55,1.55,0,1,1,110,73.73,1.54,1.54,0,0,1,111.57,75.28Z"/>
        <path d="M119.32,75.28a1.55,1.55,0,1,1-1.55-1.55A1.55,1.55,0,0,1,119.32,75.28Z"/>
        <path d="M127.07,75.28a1.55,1.55,0,1,1-1.55-1.55A1.55,1.55,0,0,1,127.07,75.28Z"/>
      </g>
    </g>
  </g>
</svg>
