<svg xmlns="http://www.w3.org/2000/svg" viewBox="0 0 195.74 204.74">
  <defs>
    <style>
      .cls-1 {
        fill: #cd2a8f;
        opacity: 0.8;
      }

      .cls-2, .cls-3, .cls-4, .cls-5, .cls-6 {
        fill: none;
        stroke: #f4a01e;
        stroke-linecap: round;
        stroke-linejoin: round;
        stroke-width: 2px;
      }

      .cls-3 {
        stroke-dasharray: 8.31 8.31;
      }

      .cls-4 {
        stroke-dasharray: 8.31 8.31;
      }

      .cls-5 {
        stroke-dasharray: 8.31 8.31;
      }

      .cls-6 {
        stroke-dasharray: 8.31 8.31;
      }
    </style>
  </defs>
  <g id="Layer_2" data-name="Layer 2">
    <g id="Layer_1-2" data-name="Layer 1">
      <path class="cls-1" d="M160.18,108.87l23.07-23.06a42.65,42.65,0,0,0-60.32-60.32L99.87,48.55,76.81,25.49A42.65,42.65,0,0,0,16.49,85.81l23.07,23.06L16.49,131.93a42.65,42.65,0,0,0,60.32,60.32l23.06-23.07,23.06,23.07a42.65,42.65,0,0,0,60.32-60.32Z"/>
      <g>
        <polyline class="cls-2" points="160.01 99.7 157.18 96.87 160.01 94.04"/>
        <path class="cls-3" d="M165.89,88.16,180.25,73.8a42.65,42.65,0,1,0-60.32-60.31l-17.29,17.3"/>
        <polyline class="cls-2" points="99.7 33.73 96.87 36.55 94.04 33.73"/>
        <path class="cls-4" d="M88.16,27.85,73.81,13.49A42.65,42.65,0,0,0,13.49,73.8l17.3,17.3"/>
        <polyline class="cls-2" points="33.73 94.04 36.55 96.87 33.73 99.7"/>
        <path class="cls-5" d="M27.85,105.57,13.49,119.93a42.65,42.65,0,0,0,60.32,60.32L91.1,163"/>
        <polyline class="cls-2" points="94.04 160.01 96.87 157.18 99.7 160.01"/>
        <path class="cls-6" d="M105.57,165.89l14.36,14.36a42.65,42.65,0,0,0,60.32-60.32L163,102.63"/>
      </g>
    </g>
  </g>
</svg>
