<svg xmlns="http://www.w3.org/2000/svg" xmlns:xlink="http://www.w3.org/1999/xlink" viewBox="0 0 885.62 836.12">
<path xmlns="http://www.w3.org/2000/svg" class="cls-9" d="M635.87,590.47l-64.13-64.13a15.11,15.11,0,0,1,0-21.38h0a15.11,15.11,0,0,1,21.37,0l64.14,64.13a15.13,15.13,0,0,1,0,21.38h0A15.13,15.13,0,0,1,635.87,590.47Z" transform="translate(54.32 31.84)"/>
<path xmlns="http://www.w3.org/2000/svg" class="cls-10" d="M598.77,623.41l-64.13-64.13a15.11,15.11,0,0,1,0-21.38h0a15.13,15.13,0,0,1,21.38,0L620.15,602a15.11,15.11,0,0,1,0,21.37h0A15.11,15.11,0,0,1,598.77,623.41Z" transform="translate(54.32 31.84)"/>
</svg>          