<svg id="Capa_1" enable-background="new 0 0 497 497" height="512" viewBox="0 0 497 497" width="512" xmlns="http://www.w3.org/2000/svg"><g><path d="m104.251 23.994v23.729l-24.566 5.363-24.566-5.363v-23.729c0-3.451 2.797-6.248 6.248-6.248h36.636c3.451 0 6.248 2.798 6.248 6.248z" fill="#5a5a5a"/><path d="m104.251 23.994v23.729l-10.865 5.363-10.865-5.363v-23.729c0-3.451 2.797-6.248 6.248-6.248h9.234c3.451 0 6.248 2.798 6.248 6.248z" fill="#444"/><path d="m441.881 23.994v23.729l-24.566 5.363-24.566-5.363v-23.729c0-3.451 2.797-6.248 6.248-6.248h36.636c3.451 0 6.248 2.798 6.248 6.248z" fill="#5a5a5a"/><path d="m441.881 23.994v23.729l-10.865 5.363-10.865-5.363v-23.729c0-3.451 2.797-6.248 6.248-6.248h9.234c3.451 0 6.248 2.798 6.248 6.248z" fill="#444"/><path d="m497 71.632v269.5c0 13.204-10.704 23.909-23.909 23.909h-445.157c-15.428 0-27.934-12.517-27.934-27.935v-261.448c0-15.418 12.506-27.935 27.934-27.935h445.157c13.205 0 23.909 10.705 23.909 23.909z" fill="#ddeafb"/><path d="m497 71.627v269.511c0 13.201-10.702 23.903-23.914 23.903h-26.103c13.201 0 26.896-10.702 26.896-23.903v-269.511c0-13.201-10.713-23.903-23.914-23.903h23.121c13.212-.001 23.914 10.701 23.914 23.903z" fill="#cbe2ff"/><ellipse cx="140.57" cy="139.812" fill="#82aee3" rx="58.05" ry="58.05" transform="matrix(.23 -.973 .973 .23 -27.799 244.5)"/><path d="m346.099 134.181h-89.109c-3.657 0-6.622-2.965-6.622-6.622v-24.091c0-3.657 2.965-6.622 6.622-6.622h89.109c3.657 0 6.622 2.965 6.622 6.622v24.091c0 3.657-2.965 6.622-6.622 6.622z" fill="#fff9df"/><path d="m198.62 139.812h-58.05v-58.05c32.06 0 58.05 25.99 58.05 58.05z" fill="#528fd8"/><path d="m438.493 371.962v99.797h-159.49v-99.797c0-25.338 20.535-45.873 45.884-45.873h67.723c25.337 0 45.883 20.535 45.883 45.873z" fill="#82aee3"/><path d="m438.493 371.962v99.797h-29.879v-99.797c0-25.338-20.546-45.873-45.884-45.873h29.879c25.338 0 45.884 20.535 45.884 45.873z" fill="#528fd8"/><path d="m438.486 429.358v42.396h-159.49v-42.396c0-25.348 20.546-45.884 45.884-45.884h67.733c5.628 0 11.017 1.011 16.004 2.868 17.45 6.498 29.869 23.296 29.869 43.016z" fill="#5a5a5a"/><path d="m382.863 225.391h-49.665c-8.844 0-16.015 7.171-16.015 16.015v17.395 26.435c0 17.449 10.941 32.357 26.348 38.202 4.509 1.717 9.387 2.651 14.494 2.651 22.567 0 40.853-18.297 40.853-40.853v-26.435-17.395c0-8.844-7.171-16.015-16.015-16.015z" fill="#5a5a5a"/><path d="m382.863 225.391h-28.988c8.844 0 16.015 7.171 16.015 16.015v17.395 26.435c0 17.449-10.952 32.357-26.359 38.202 4.509 1.717 9.387 2.651 14.494 2.651 22.567 0 40.853-18.297 40.853-40.853v-26.435-17.395c0-8.844-7.171-16.015-16.015-16.015z" fill="#444"/><path d="m221.735 371.962v99.797h-159.49v-99.797c0-25.338 20.535-45.873 45.884-45.873h67.723c25.337 0 45.883 20.535 45.883 45.873z" fill="#a274bf"/><path d="m221.735 371.962v99.797h-29.879v-99.797c0-25.338-20.546-45.873-45.884-45.873h29.879c25.338 0 45.884 20.535 45.884 45.873z" fill="#925cb4"/><path d="m221.728 429.358v42.396h-159.49v-42.396c0-25.348 20.546-45.884 45.884-45.884h67.733c5.628 0 11.017 1.011 16.004 2.868 17.45 6.498 29.869 23.296 29.869 43.016z" fill="#5a5a5a"/><path d="m408.618 386.343c-4.987-1.858-10.376-2.868-16.004-2.868h-28.634c5.628 0 11.018 1.01 16.004 2.868 17.45 6.497 29.869 23.295 29.869 43.015v42.396h28.634v-42.396c-.001-19.72-12.42-36.518-29.869-43.015z" fill="#444"/><path d="m191.859 386.343c-4.987-1.858-10.376-2.868-16.004-2.868h-28.634c5.628 0 11.017 1.01 16.004 2.868 17.45 6.497 29.869 23.295 29.869 43.015v42.396h28.634v-42.396c0-19.72-12.419-36.518-29.869-43.015z" fill="#444"/><path d="m166.105 225.391h-49.665c-8.844 0-16.015 7.171-16.015 16.015v17.395 26.435c0 17.449 10.941 32.357 26.348 38.202 4.509 1.717 9.387 2.651 14.494 2.651 22.567 0 40.853-18.297 40.853-40.853v-26.435-17.395c0-8.844-7.171-16.015-16.015-16.015z" fill="#5a5a5a"/><path d="m166.105 225.391h-28.988c8.844 0 16.015 7.171 16.015 16.015v17.395 26.435c0 17.449-10.952 32.357-26.359 38.202 4.509 1.717 9.387 2.651 14.494 2.651 22.567 0 40.853-18.297 40.853-40.853v-26.435-17.395c0-8.844-7.171-16.015-16.015-16.015z" fill="#444"/><g><path d="m470.5 479.254h-191.5c-4.143 0-7.5-3.358-7.5-7.5s3.357-7.5 7.5-7.5h191.5c4.143 0 7.5 3.358 7.5 7.5s-3.357 7.5-7.5 7.5z" fill="#444"/></g><g><path d="m244.133 479.254h-220.277c-4.143 0-7.5-3.358-7.5-7.5s3.357-7.5 7.5-7.5h220.276c4.143 0 7.5 3.358 7.5 7.5s-3.357 7.5-7.499 7.5z" fill="#444"/></g><g><path d="m431.016 178.804h-171.883c-4.143 0-7.5-3.358-7.5-7.5s3.357-7.5 7.5-7.5h171.883c4.143 0 7.5 3.358 7.5 7.5s-3.358 7.5-7.5 7.5z" fill="#fff9df"/></g><g><path d="m431.016 123.014h-42.73c-4.143 0-7.5-3.358-7.5-7.5s3.357-7.5 7.5-7.5h42.73c4.143 0 7.5 3.358 7.5 7.5s-3.358 7.5-7.5 7.5z" fill="#fff9df"/></g></g></svg>