<svg id="Capa_1" enable-background="new 0 0 512 512" height="512" viewBox="0 0 512 512" width="512" xmlns="http://www.w3.org/2000/svg"><g><path d="m199.23 449.739 28.927-67.142 21.192-5 34.494 5 28.927 67.142-59.995 7z" fill="#e8edf2"/><path d="m293.829 405.776-9.986-23.179h-55.686l-9.986 23.179z" fill="#c5d3dd"/><path d="m484.061 23.124h-456.123c-15.429 0-27.938 12.508-27.938 27.938v303.596c0 15.43 12.509 27.939 27.939 27.939h456.123c15.43 0 27.939-12.509 27.939-27.939v-303.596c-.001-15.43-12.51-27.938-27.94-27.938z" fill="#01c0fa"/><path d="m484.061 23.124h-24.896c15.43 0 27.935 12.509 27.935 27.939v303.596c0 15.43-12.509 27.939-27.939 27.939h24.9c15.43 0 27.939-12.509 27.939-27.939v-303.597c0-15.43-12.509-27.938-27.939-27.938z" fill="#0290cf"/><path d="m484.061 23.124h-456.123c-15.43 0-27.938 12.508-27.938 27.938v250.262c0 15.43 12.509 27.939 27.939 27.939h456.123c15.43 0 27.939-12.508 27.939-27.939v-250.262c-.001-15.43-12.509-27.938-27.94-27.938z" fill="#596c76"/><path d="m510.744 42.754c-.952-3.062-2.417-5.898-4.294-8.408-5.095-6.813-13.227-11.222-22.388-11.222h-24.896c15.427.004 27.935 12.511 27.935 27.939v278.033c14-1.515 24.9-13.368 24.9-27.771v-250.263c-.001-2.893-.441-5.683-1.257-8.308z" fill="#465a61"/><path d="m332.59 449.739h-153.18c-13.733 0-24.866 11.133-24.866 24.866v6.013c0 4.561 3.698 8.259 8.259 8.259h186.393c4.561 0 8.259-3.698 8.259-8.259v-6.013c0-13.733-11.132-24.866-24.865-24.866z" fill="#01c0fa"/><path d="m331.839 449.739h-23.865c14.147 0 25.616 11.469 25.616 25.616v5.013c0 4.699-3.809 8.508-8.508 8.508h23.865c4.699 0 8.508-3.809 8.508-8.508v-5.013c0-14.147-11.468-25.616-25.616-25.616z" fill="#0290cf"/><path d="m316.967 115.887c0-2.845-2.306-5.151-5.151-5.151h-111.633c-2.845 0-5.151 2.306-5.151 5.151v23.815c0 2.845 2.306 5.151 5.151 5.151h38.758v86.497c0 2.845 2.306 5.151 5.151 5.151h23.815c2.845 0 5.151-2.306 5.151-5.151v-86.497h38.758c2.845 0 5.151-2.306 5.151-5.151z" fill="#0ed2b3"/><g fill="#e8edf2"><path d="m358.519 268.299c-4.268 0-7.726-3.459-7.726-7.726v-173.91c0-4.267 3.459-7.726 7.726-7.726s7.726 3.459 7.726 7.726v173.909c0 4.268-3.458 7.727-7.726 7.727z"/><path d="m153.481 268.299c-4.268 0-7.726-3.459-7.726-7.726v-173.91c0-4.267 3.459-7.726 7.726-7.726s7.726 3.459 7.726 7.726v173.909c0 4.268-3.459 7.727-7.726 7.727z"/><path d="m342.862 78.732h-173.724c-4.268 0-7.726-3.459-7.726-7.726s3.459-7.726 7.726-7.726h173.724c4.268 0 7.726 3.459 7.726 7.726s-3.458 7.726-7.726 7.726z"/><path d="m342.862 283.957h-173.724c-4.268 0-7.726-3.459-7.726-7.726s3.459-7.726 7.726-7.726h173.724c4.268 0 7.726 3.459 7.726 7.726.001 4.266-3.458 7.726-7.726 7.726z"/></g><g fill="#fe9738"><path d="m374.177 50.197h-31.315c-2.845 0-5.151 2.306-5.151 5.151v31.315c0 2.845 2.306 5.151 5.151 5.151h31.315c2.845 0 5.151-2.306 5.151-5.151v-31.315c0-2.845-2.306-5.151-5.151-5.151z"/><path d="m374.177 255.422h-31.315c-2.845 0-5.151 2.306-5.151 5.151v31.315c0 2.845 2.306 5.151 5.151 5.151h31.315c2.845 0 5.151-2.306 5.151-5.151v-31.315c0-2.845-2.306-5.151-5.151-5.151z"/><path d="m169.138 50.197h-31.315c-2.845 0-5.151 2.306-5.151 5.151v31.315c0 2.845 2.306 5.151 5.151 5.151h31.315c2.845 0 5.151-2.306 5.151-5.151v-31.315c0-2.845-2.306-5.151-5.151-5.151z"/><path d="m169.138 255.422h-31.315c-2.845 0-5.151 2.306-5.151 5.151v31.315c0 2.845 2.306 5.151 5.151 5.151h31.315c2.845 0 5.151-2.306 5.151-5.151v-31.315c0-2.845-2.306-5.151-5.151-5.151z"/></g></g></svg>