<?xml version="1.0" encoding="iso-8859-1"?>
<!-- Generator: Adobe Illustrator 19.0.0, SVG Export Plug-In . SVG Version: 6.00 Build 0)  -->
<svg version="1.1" id="Capa_1" xmlns="http://www.w3.org/2000/svg" xmlns:xlink="http://www.w3.org/1999/xlink" x="0px" y="0px"
	 viewBox="0 0 511.999 511.999" style="enable-background:new 0 0 511.999 511.999;" xml:space="preserve">
<path style="fill:#015E82;" d="M41.323,353.496c-27.151-4.788-45.346-30.771-40.558-57.923l17.018-96.511
	c4.788-27.152,30.771-45.346,57.923-40.558c27.151,4.788,45.346,30.771,40.558,57.923l-17.018,96.511
	C94.458,340.089,68.474,358.283,41.323,353.496z"/>
<path style="fill:#00B8FA;" d="M165.165,397.812c-27.151-4.788-45.346-30.771-40.558-57.923l32.646-185.144
	c4.788-27.152,30.771-45.346,57.923-40.558c27.151,4.788,45.346,30.771,40.558,57.923l-32.646,185.144
	C218.301,384.405,192.317,402.599,165.165,397.812z"/>
<path style="fill:#014059;" d="M286.404,449.515c-27.151-4.788-45.346-30.771-40.558-57.923l50.879-288.549
	c4.788-27.152,30.771-45.346,57.923-40.558s45.346,30.771,40.558,57.923l-50.879,288.549
	C339.539,436.108,313.555,454.302,286.404,449.515z"/>
<path style="fill:#009AD2;" d="M436.294,353.496c-27.151-4.788-45.346-30.771-40.558-57.923l17.018-96.511
	c4.788-27.152,30.771-45.346,57.923-40.558c27.151,4.788,45.345,30.771,40.558,57.923l-17.018,96.511
	C489.429,340.089,463.445,358.283,436.294,353.496z"/>
<g>
</g>
<g>
</g>
<g>
</g>
<g>
</g>
<g>
</g>
<g>
</g>
<g>
</g>
<g>
</g>
<g>
</g>
<g>
</g>
<g>
</g>
<g>
</g>
<g>
</g>
<g>
</g>
<g>
</g>
</svg>
